<svg width="133" height="40" viewBox="0 0 93 40" fill="none" xmlns="http://www.w3.org/2000/svg">


<g transform="translate(0.000000,335.000000) scale(0.100000,-0.100000)"
fill="#000000" stroke="none">
<path d="M646 3293 c-13 -83 -5 -133 22 -133 8 0 48 17 88 37 85 42 85 45 -11
98 -79 45 -91 44 -99 -2z"/>
<path d="M201 2945 c-24 -8 -78 -31 -120 -51 l-76 -38 65 -61 c36 -34 92 -84
125 -110 l60 -48 6 39 c4 21 9 66 13 99 11 105 15 139 20 163 4 19 1 22 -22
21 -15 0 -47 -7 -71 -14z"/>
<path d="M1003 2723 c-163 -91 -257 -187 -337 -343 -98 -189 -132 -354 -123
-605 6 -175 26 -290 78 -448 33 -99 130 -310 156 -339 21 -24 33 -23 33 3 0
11 -4 17 -10 14 -6 -3 -7 1 -4 9 3 9 10 16 14 16 4 0 8 11 8 25 0 13 -5 22
-10 19 -6 -4 -5 3 1 15 7 12 9 27 5 33 -4 7 -3 8 4 4 16 -10 15 7 0 23 -11 11
-10 12 1 6 11 -6 13 -2 9 19 -4 18 0 29 11 36 12 7 13 11 4 21 -8 8 -9 18 -2
31 5 10 6 18 2 18 -4 0 -1 5 7 10 13 9 13 11 0 20 -12 8 -12 12 -2 18 9 6 11
18 6 35 -3 15 -2 27 3 27 5 0 8 14 5 30 -3 23 0 30 12 30 19 0 19 1 6 35 -7
19 -7 24 1 19 8 -5 10 3 7 27 -4 24 0 37 11 46 12 9 13 12 2 13 -11 0 -11 3 0
17 11 13 11 15 1 9 -11 -6 -11 -2 1 20 8 16 12 35 9 43 -2 7 2 17 9 22 9 5 9
9 3 9 -16 0 -12 49 4 55 10 4 10 9 1 26 -6 12 -7 19 -1 15 5 -3 12 15 16 42
11 78 12 81 19 88 3 4 2 15 -4 25 -5 11 -6 19 -2 19 14 0 32 113 20 128 -7 9
-4 12 9 13 11 0 14 3 7 6 -7 2 -13 9 -13 14 0 6 6 7 13 3 7 -5 6 0 -3 11 -14
17 -13 18 4 12 15 -6 17 -4 11 10 -11 25 -7 93 6 109 6 7 8 18 4 24 -3 5 -2
10 3 10 6 0 8 10 4 22 -3 12 -1 19 5 15 5 -3 10 0 10 8 0 8 -3 12 -7 10 -11
-7 6 73 19 89 7 8 9 25 5 40 -4 17 -2 26 6 26 9 0 10 3 1 13 -8 10 -7 17 2 26
14 15 16 63 2 73 -6 4 -2 8 8 8 19 0 21 8 8 29 -6 9 -4 19 6 29 8 8 10 18 5
21 -5 3 -8 14 -6 24 1 9 2 17 1 17 -1 0 -39 -21 -84 -47z"/>
<path d="M11377 2226 c-21 -46 -21 -55 1 -51 9 2 27 4 40 4 28 1 28 23 -1 56
l-22 27 -18 -36z"/>
<path d="M11708 2218 c-21 -6 -38 -15 -38 -21 0 -7 22 -36 48 -65 l48 -52 18
57 c10 32 20 66 22 76 4 14 -1 17 -28 16 -18 -1 -50 -6 -70 -11z"/>
<path d="M3325 728 c-6 -18 -145 -576 -145 -583 0 -3 44 -4 98 -3 l97 3 20 98
c10 53 24 97 30 97 24 0 203 -150 209 -175 6 -24 9 -25 101 -25 52 0 95 3 95
8 0 4 -32 139 -72 300 l-73 292 -88 0 c-48 0 -86 -4 -83 -8 7 -12 76 -333 76
-354 0 -16 -11 -18 -85 -18 -61 0 -85 3 -85 13 0 6 18 91 40 187 22 96 40 176
40 178 0 1 -38 2 -85 2 -60 0 -87 -4 -90 -12z"/>
<path d="M4025 733 c-83 -18 -105 -50 -105 -153 0 -82 9 -104 50 -125 23 -12
236 -55 273 -55 4 0 16 -9 27 -20 18 -18 20 -33 20 -131 l0 -111 38 6 c69 13
101 27 127 57 22 27 25 40 25 105 0 42 -5 84 -11 96 -17 31 -83 55 -214 78
-153 26 -155 28 -155 156 0 77 3 94 15 94 8 0 51 -28 95 -62 58 -46 80 -69 80
-85 0 -22 3 -23 91 -23 90 0 91 0 85 23 -3 12 -6 37 -6 55 0 46 -36 76 -107
91 -53 10 -285 14 -328 4z"/>
<path d="M4600 440 l0 -300 95 0 95 0 0 300 0 300 -95 0 -95 0 0 -300z"/>
<path d="M5065 728 c-6 -18 -145 -576 -145 -583 0 -3 44 -4 98 -3 l97 3 20 98
c11 54 24 97 31 97 23 0 202 -149 208 -175 6 -25 8 -25 101 -25 52 0 95 3 95
8 0 4 -32 139 -72 300 l-73 292 -88 0 c-48 0 -86 -4 -83 -8 7 -12 76 -333 76
-354 0 -16 -11 -18 -85 -18 -56 0 -85 4 -85 11 0 6 18 90 40 186 22 97 40 177
40 179 0 2 -38 4 -85 4 -60 0 -87 -4 -90 -12z"/>
<path d="M5670 440 l0 -300 70 0 70 0 0 139 c0 115 -4 158 -25 243 -14 57 -25
110 -25 118 1 25 32 -23 177 -267 l138 -233 122 0 123 0 0 300 0 300 -65 0
-65 0 0 -210 c0 -162 -3 -210 -12 -210 -7 1 -71 95 -142 210 l-129 210 -119 0
-118 0 0 -300z"/>
<path d="M6817 726 c-89 -32 -97 -56 -97 -300 l0 -194 26 -31 c42 -51 108 -64
293 -59 211 5 251 27 251 135 l0 53 -90 0 -90 0 0 -53 c0 -77 -15 -92 -88 -92
-96 0 -92 -13 -92 291 l0 264 -37 0 c-21 -1 -55 -7 -76 -14z"/>
<path d="M6960 737 c0 -2 31 -27 70 -56 55 -42 71 -60 76 -87 l6 -34 89 0 89
0 0 58 c0 70 -20 95 -90 111 -40 9 -240 16 -240 8z"/>
<path d="M7400 490 c0 -160 4 -258 11 -273 6 -14 30 -35 52 -48 35 -19 59 -24
157 -27 l115 -4 -40 33 c-22 18 -55 48 -72 65 l-33 32 0 236 0 236 -95 0 -95
0 0 -250z"/>
<path d="M7770 440 l0 -300 23 0 c44 0 123 30 148 56 24 26 24 26 27 285 l3
259 -101 0 -100 0 0 -300z"/>
<path d="M8100 440 l0 -300 95 0 95 0 0 300 0 300 -95 0 -95 0 0 -300z"/>
<path d="M8505 733 c-83 -18 -105 -50 -105 -153 0 -82 9 -104 50 -125 23 -12
236 -55 273 -55 4 0 16 -9 27 -20 18 -18 20 -33 20 -131 l0 -111 38 6 c69 13
101 27 127 57 22 27 25 40 25 105 0 42 -5 84 -11 96 -17 31 -83 55 -214 78
-153 26 -155 28 -155 156 0 77 3 94 15 94 8 0 51 -28 95 -62 58 -46 80 -69 80
-85 0 -22 3 -23 91 -23 90 0 91 0 85 23 -3 12 -6 37 -6 55 0 46 -36 76 -107
91 -53 10 -285 14 -328 4z"/>
<path d="M9080 440 l0 -300 95 0 95 0 0 300 0 300 -95 0 -95 0 0 -300z"/>
<path d="M9400 440 l0 -300 70 0 70 0 0 139 c0 115 -4 158 -25 243 -14 57 -25
110 -25 118 1 25 31 -21 177 -267 l138 -233 122 0 123 0 0 300 0 300 -65 0
-65 0 0 -210 c0 -162 -3 -210 -12 -210 -7 1 -71 95 -142 210 l-129 210 -118 0
-119 0 0 -300z"/>
<path d="M10140 440 l0 -300 220 0 220 0 0 35 0 35 -120 0 -120 0 0 105 0 105
100 0 100 0 0 30 0 30 -99 0 -98 0 -6 28 c-4 18 -28 44 -76 82 -39 30 -71 60
-71 67 0 10 42 13 185 13 l185 0 0 35 0 35 -210 0 -210 0 0 -300z"/>
<path d="M3916 273 c13 -100 53 -124 223 -131 71 -3 112 -1 108 5 -3 5 -40 36
-81 69 -55 42 -76 65 -76 81 0 22 -3 23 -90 23 l-90 0 6 -47z"/>
<path d="M8396 273 c13 -100 53 -124 223 -131 71 -3 112 -1 108 5 -3 5 -40 36
-81 69 -55 42 -76 65 -76 81 0 22 -3 23 -90 23 l-90 0 6 -47z"/>
</g>
</svg>
