<svg version="1.1" id="Layer_1" xmlns="http://www.w3.org/2000/svg" xmlns:xlink="http://www.w3.org/1999/xlink" x="0px" y="0px"
	 width="100%" viewBox="0 0 1275 335" enable-background="new 0 0 1275 335" xml:space="preserve">
<path fill="#FFFFFF" opacity="1.000000" stroke="none" 
	d="
M1276.000000,200.000000 
	C1276.000000,245.321884 1276.000000,290.643768 1276.000000,335.982819 
	C851.118835,335.982819 426.237732,335.982819 1.000000,335.982819 
	C1.000000,241.309555 1.000000,146.618668 1.326937,51.547226 
	C10.080043,58.457077 18.506210,65.747467 27.088554,73.332077 
	C28.819355,74.420403 30.393978,75.214500 32.159660,76.301476 
	C34.561470,77.409210 36.772217,78.224075 39.179913,79.342865 
	C41.247086,80.042816 43.117310,80.438858 45.353497,80.984909 
	C47.809624,81.368752 49.899792,81.602577 52.426311,81.906204 
	C54.898685,81.823975 56.934708,81.671944 59.329300,81.574524 
	C62.124931,80.753273 64.561996,79.877411 67.358482,78.980804 
	C70.151680,77.656296 72.585464,76.352539 75.360840,74.988075 
	C80.510185,70.954147 85.317932,66.980927 90.896744,62.370472 
	C85.707558,58.560848 81.346016,55.358841 76.688301,52.006706 
	C74.856804,50.773663 73.321487,49.690746 71.505783,48.386505 
	C68.807549,46.861340 66.389687,45.557491 63.657368,44.091736 
	C61.214245,43.091087 59.085575,42.252350 56.584976,41.266338 
	C54.143688,40.703484 52.074337,40.287899 49.620140,39.841385 
	C47.504059,39.497059 45.772820,39.183655 43.678642,38.684105 
	C39.227879,38.662376 35.140045,38.826794 30.625931,38.995461 
	C19.415510,39.876862 10.090070,44.626041 1.000000,50.000000 
	C1.000000,33.728222 1.000000,17.456448 1.000000,1.000000 
	C22.357058,1.000000 43.714645,1.000000 65.524902,1.406913 
	C65.998116,8.865010 66.018646,15.916194 66.011444,23.343761 
	C66.435379,25.131660 66.887039,26.543177 67.397865,28.278368 
	C68.624580,30.430933 69.792122,32.259823 71.008987,34.420540 
	C72.298080,36.327610 73.537872,37.902847 74.887962,39.751396 
	C76.180283,41.076065 77.362305,42.127434 78.765152,43.445419 
	C80.623001,44.828232 82.260017,45.944431 84.054962,47.367348 
	C86.651314,49.226440 89.089714,50.778816 92.317894,52.833992 
	C93.710197,48.686729 94.835373,45.335186 96.226151,41.695129 
	C96.644745,39.265785 96.797729,37.124950 97.170120,34.726143 
	C97.204430,32.638023 97.019325,30.807886 96.872093,28.616310 
	C95.953506,26.147030 94.997040,24.039188 93.989151,21.597666 
	C92.612274,19.609617 91.286819,17.955250 89.686005,16.105579 
	C88.304214,14.906362 87.197784,13.902448 85.950851,12.592653 
	C79.873550,8.524516 73.936775,4.762259 68.000000,1.000001 
	C470.542572,1.000000 873.085144,1.000000 1276.000000,1.000000 
	C1276.000000,60.356892 1276.000000,119.714561 1275.638184,179.412384 
	C1274.146240,176.312744 1273.320679,172.735260 1271.838257,169.454636 
	C1258.449341,139.825775 1223.309082,131.752533 1199.439209,150.106491 
	C1176.785034,167.525757 1172.882080,197.400452 1190.006104,220.703674 
	C1210.390381,248.443588 1253.947632,245.259521 1269.919189,214.758713 
	C1272.377075,210.064789 1273.994141,204.930573 1276.000000,200.000000 
M1137.042847,132.739685 
	C1139.035522,134.536331 1141.028198,136.332977 1143.397217,138.469040 
	C1144.728394,135.418655 1145.710083,133.169098 1146.909546,130.262466 
	C1147.121582,129.159714 1147.333618,128.056976 1147.818726,126.147285 
	C1147.539307,123.769798 1147.259888,121.392319 1146.764038,118.305641 
	C1145.100098,115.028618 1143.436157,111.751587 1141.772217,108.474556 
	C1141.122437,108.543793 1140.472656,108.613037 1139.822876,108.682274 
	C1138.223145,112.459114 1136.623413,116.235962 1134.474976,120.577324 
	C1134.406860,122.710106 1134.338745,124.842888 1134.376221,127.628540 
	C1135.213745,129.109268 1136.051270,130.589981 1137.042847,132.739685 
M1158.837891,142.939865 
	C1161.070312,142.439804 1163.302856,141.939758 1166.171997,141.218109 
	C1167.794800,140.185150 1169.417603,139.152191 1171.638794,137.812592 
	C1173.344971,135.507782 1175.051147,133.202957 1177.089478,130.251602 
	C1179.141113,124.417198 1181.192749,118.582802 1183.528076,111.941704 
	C1175.723755,112.479843 1169.448730,113.043747 1163.350830,117.044678 
	C1161.545898,118.662025 1159.740845,120.279373 1157.324219,122.166550 
	C1155.873535,124.105576 1154.422729,126.044601 1152.398926,128.351639 
	C1151.600586,130.229080 1150.802246,132.106522 1149.421875,134.387543 
	C1148.562378,137.233627 1145.468262,139.958008 1148.328125,143.631058 
	C1124.531616,133.114227 1102.397705,137.401993 1086.895996,155.589935 
	C1076.503418,167.783493 1071.088867,181.378387 1075.256348,197.309296 
	C1077.075317,204.262787 1080.400513,210.881638 1083.530029,217.418808 
	C1088.099976,226.965256 1090.839355,236.762970 1087.891602,247.206314 
	C1086.665649,251.549866 1084.310303,255.655380 1082.000732,259.594879 
	C1077.691650,266.945099 1079.770264,271.416473 1088.312500,271.930298 
	C1093.417603,272.237335 1098.572998,272.273529 1103.675781,271.953308 
	C1123.343506,270.719177 1139.814331,262.275574 1152.896606,247.954102 
	C1163.662354,236.168579 1170.116943,221.767746 1173.584595,206.187073 
	C1178.743042,183.009262 1171.528687,156.689377 1149.680054,144.873322 
	C1149.222412,144.625824 1149.157104,143.653137 1149.821777,142.908096 
	C1152.558960,142.882965 1155.296265,142.857834 1158.837891,142.939865 
M281.695923,116.964119 
	C282.011414,117.196320 282.326874,117.428520 282.642395,117.660713 
	C282.446106,117.092133 282.249817,116.523552 281.912628,115.283188 
	C271.447906,101.717987 259.658478,89.469353 245.585587,78.557106 
	C237.059494,73.035553 228.533386,67.513992 219.607468,61.427719 
	C216.393799,59.957909 213.180145,58.488098 209.517563,56.467472 
	C205.337921,54.982075 201.158279,53.496681 196.504059,51.446907 
	C191.669937,50.352898 186.835800,49.258884 181.253555,47.874249 
	C176.167953,47.305996 171.082352,46.737740 165.084091,46.035427 
	C161.388443,46.079346 157.692795,46.123264 153.168991,46.036922 
	C150.112091,46.427387 147.055176,46.817852 143.240997,47.135765 
	C140.826599,47.812878 138.412216,48.489990 135.226212,49.035236 
	C132.816971,49.745880 130.407730,50.456528 127.244377,51.082943 
	C124.151283,52.347363 121.058182,53.611782 117.214752,54.989326 
	C112.451828,57.313889 107.688896,59.638451 102.221672,62.060822 
	C98.136993,64.682762 94.052315,67.304710 89.269386,70.008057 
	C85.481117,73.658417 81.692841,77.308769 77.292717,81.245789 
	C74.815842,84.650307 72.137581,87.927826 69.896690,91.481171 
	C59.790676,107.506119 55.414806,125.349998 54.207977,143.986984 
	C53.179634,159.867737 54.516758,175.618561 59.004925,191.690170 
	C59.090679,192.148499 59.176434,192.606812 59.216434,193.594162 
	C59.484570,194.031570 59.752708,194.468994 60.009045,195.710220 
	C61.772240,201.133698 63.535439,206.557190 65.466736,212.664810 
	C68.329720,218.768341 71.192711,224.871857 74.218147,231.664352 
	C78.131981,237.814270 82.045822,243.964188 86.081985,250.788940 
	C88.373352,253.896713 90.664726,257.004486 93.222946,260.717224 
	C95.130836,262.819916 97.038734,264.922577 99.251961,267.608490 
	C101.140617,269.414581 103.029274,271.220673 105.194237,273.639343 
	C108.112480,276.461334 111.030724,279.283295 114.232521,282.722076 
	C117.145836,284.846252 120.059143,286.970398 123.258614,289.694946 
	C125.831673,291.487854 128.404724,293.280731 131.283188,295.664307 
	C133.856567,297.322327 136.429947,298.980347 139.579803,301.072174 
	C142.043228,302.401459 144.506653,303.730774 147.310669,305.655670 
	C151.209900,307.658997 155.109131,309.662323 159.661148,312.014771 
	C163.444870,313.600800 167.228607,315.186798 171.669067,317.079834 
	C174.117020,317.986389 176.564972,318.892975 179.703110,320.086670 
	C186.135483,322.002869 192.567856,323.919067 199.731613,326.111023 
	C206.160156,327.390167 212.588699,328.669312 219.623123,330.459839 
	C233.414566,331.251617 247.206024,332.043396 261.892944,332.974792 
	C269.115417,332.092590 276.337921,331.210388 284.304352,330.295715 
	C295.866028,327.785522 302.158112,322.131897 303.032196,313.347015 
	C304.389221,299.708466 299.181335,287.512909 294.915894,274.789398 
	C292.950714,275.538971 291.438721,276.115662 289.102997,276.827271 
	C282.403534,277.860046 275.704071,278.892822 268.116608,279.734680 
	C254.679474,279.862671 241.685165,277.384186 228.276062,272.876678 
	C222.187363,269.910248 216.098648,266.943848 209.652679,263.405365 
	C203.481613,258.823456 197.310562,254.241531 190.760925,249.140884 
	C188.229782,246.628998 185.698639,244.117111 182.951218,240.990982 
	C179.682770,237.126099 176.414322,233.261215 173.003845,228.758087 
	C169.734589,224.038788 166.465332,219.319489 163.289886,213.887436 
	C161.215042,209.915863 159.140198,205.944305 156.987427,201.228516 
	C154.988617,196.490921 152.989807,191.753342 150.980850,186.223114 
	C149.371140,178.462448 147.761429,170.701797 146.128998,162.024246 
	C145.392258,148.199402 148.957550,135.358780 155.641556,122.782684 
	C160.589233,114.434975 167.554672,107.976624 175.712509,101.763107 
	C180.800735,99.171417 185.888962,96.579727 191.761368,93.971046 
	C195.510345,92.924873 199.259308,91.878693 203.848679,90.963478 
	C207.902420,90.589531 211.956161,90.215576 216.886612,89.973297 
	C225.895004,91.451561 234.903397,92.929825 244.449982,94.829010 
	C258.311462,99.397293 270.240021,107.269333 281.695923,116.964119 
M776.884155,322.816040 
	C779.506348,322.558197 782.141174,322.391296 784.748474,322.026642 
	C795.476196,320.526184 798.802490,316.737946 798.832153,306.029541 
	C798.856995,297.055328 798.837830,288.080963 798.838013,279.106689 
	C798.838135,273.181549 798.838013,267.256439 798.838013,261.387573 
	C791.504272,261.387573 784.807678,261.387573 777.994629,261.387573 
	C777.994629,280.391357 778.040527,299.002350 777.907532,317.612030 
	C777.896912,319.100006 776.651855,320.579224 775.659485,321.469391 
	C772.180786,318.652985 768.894348,315.542114 765.166565,313.107086 
	C761.777039,310.892975 760.892273,308.128784 760.939575,304.329010 
	C761.099060,291.526520 761.000610,278.720856 761.000732,265.916382 
	C761.000793,264.336304 761.000793,262.756226 761.000793,261.392487 
	C753.545776,261.392487 746.826050,261.392487 739.999268,261.392487 
	C739.999268,277.248383 739.974365,292.711212 740.010132,308.173889 
	C740.027100,315.527435 742.486328,319.687500 749.860474,320.930328 
	C758.431702,322.374969 767.271851,322.224182 776.884155,322.816040 
M877.857971,322.340240 
	C881.466187,321.901794 885.141357,321.757843 888.666748,320.955292 
	C893.857239,319.773712 897.420959,316.182281 897.738892,310.983734 
	C898.715271,295.018555 898.585327,291.741302 882.741333,288.481201 
	C881.604919,288.247345 880.433411,288.187775 879.291748,287.974792 
	C874.245361,287.033325 869.106384,286.391632 864.213440,284.930054 
	C862.499451,284.418030 860.363892,281.962036 860.202332,280.227722 
	C859.687988,274.707581 860.011841,269.109344 860.011841,262.225342 
	C866.302612,269.518066 875.968079,271.445831 878.333923,280.714050 
	C884.157654,280.714050 889.922302,280.714050 896.003296,280.714050 
	C896.003296,278.124329 896.014648,275.820496 896.001099,273.516785 
	C895.968018,267.873993 893.943787,264.492188 888.625671,263.206451 
	C875.202087,259.961060 861.644409,260.084290 848.124268,262.758026 
	C843.036377,263.764191 840.022644,267.310211 840.177917,272.242249 
	C840.388794,278.938568 837.022522,287.111481 845.828491,291.192047 
	C848.777771,292.558716 852.071228,293.297058 855.282227,293.959473 
	C860.954407,295.129761 866.709534,295.899017 872.380005,297.076263 
	C875.727905,297.771301 877.261475,299.951263 877.130005,303.592316 
	C876.907654,309.748199 877.065063,315.917816 876.392151,321.901672 
	C872.028809,318.345612 867.515259,314.954224 863.363098,311.166656 
	C861.163208,309.159882 859.591248,306.464600 857.089905,303.250000 
	C852.518250,303.250000 846.450684,303.250000 839.993225,303.250000 
	C839.993225,304.959747 839.997742,306.416534 839.992432,307.873260 
	C839.958252,317.256042 842.897095,320.799500 852.204285,321.915833 
	C857.454834,322.545624 862.763916,322.840820 868.052917,322.936462 
	C871.026917,322.990265 874.013855,322.331390 877.857971,322.340240 
M429.857819,322.339966 
	C433.466156,321.901703 437.141174,321.757019 440.667053,320.955872 
	C445.859558,319.776031 449.421631,316.183258 449.738678,310.985077 
	C450.707428,295.102448 450.623474,291.721436 434.740234,288.486115 
	C433.603180,288.254517 432.433258,288.187927 431.291626,287.974915 
	C426.245117,287.033203 421.105835,286.392517 416.212708,284.931091 
	C414.498779,284.419220 412.363831,281.962158 412.202209,280.227417 
	C411.687866,274.707153 412.011749,269.108765 412.011749,262.219696 
	C418.297394,269.522034 427.969360,271.443268 430.333496,280.714905 
	C436.155670,280.714905 441.920654,280.714905 448.003448,280.714905 
	C448.003448,278.126404 448.015015,275.822754 448.001160,273.519257 
	C447.967194,267.874146 445.942688,264.490753 440.627014,263.206757 
	C427.203461,259.964264 413.645935,260.083832 400.125580,262.756958 
	C395.036682,263.763092 392.023621,267.309052 392.177887,272.240662 
	C392.387360,278.937714 389.024292,287.110229 397.828430,291.191833 
	C400.777466,292.559021 404.071198,293.297089 407.282318,293.959534 
	C412.954529,295.129761 418.709534,295.899292 424.380249,297.075806 
	C427.729492,297.770691 429.261261,299.951569 429.129944,303.591980 
	C428.907867,309.747986 429.064972,315.917603 428.391937,321.901581 
	C424.028900,318.345428 419.515778,314.953796 415.363708,311.166382 
	C413.163879,309.159760 411.591492,306.465332 409.088379,303.249634 
	C404.519318,303.249634 398.451752,303.249634 391.992798,303.249634 
	C391.992798,304.959045 391.997437,306.415680 391.992096,307.872284 
	C391.957672,317.256927 394.895874,320.799683 404.204834,321.915985 
	C409.455200,322.545624 414.764130,322.840698 420.053009,322.936249 
	C423.026947,322.990021 426.013733,322.331207 429.857819,322.339966 
M181.957657,216.570877 
	C184.780579,219.357880 187.438812,222.338486 190.452255,224.901489 
	C216.395035,246.966476 257.004608,245.324478 281.076477,221.266403 
	C292.934570,209.415161 298.811432,194.682281 300.907471,178.368805 
	C301.845459,171.068451 301.856537,163.648987 302.289703,156.259277 
	C276.612823,156.259277 252.027695,156.259277 227.407898,156.259277 
	C227.407898,167.215332 227.407898,177.905380 227.407898,188.993683 
	C236.705933,188.993683 245.597824,188.993683 255.154480,188.993683 
	C254.389175,190.082214 254.078949,190.617096 253.680878,191.075790 
	C246.336441,199.538773 235.212479,202.639145 224.870819,199.119064 
	C214.777817,195.683624 207.888031,186.100113 206.783646,175.220276 
	C204.786545,155.545441 220.331589,141.387283 237.265945,143.281601 
	C244.679230,144.110870 251.753204,147.973465 259.712097,150.709915 
	C267.861664,143.028473 277.012085,134.403641 286.235992,125.709534 
	C285.685822,124.891205 285.418915,124.246887 284.949432,123.831543 
	C266.416260,107.434990 245.034897,100.823853 220.566360,105.581284 
	C189.804245,111.562386 168.071671,137.229294 165.739883,165.814560 
	C164.189728,184.817749 169.212585,201.495026 181.957657,216.570877 
M735.538208,166.149292 
	C734.358582,171.950562 732.325806,177.727814 732.161682,183.557678 
	C731.697632,200.043472 731.999451,216.550827 731.999512,233.049683 
	C731.999512,234.632401 731.999512,236.215134 731.999512,237.737396 
	C744.693787,237.737396 756.628540,237.737396 769.000671,237.737396 
	C769.000671,235.853531 769.000671,234.227859 769.000671,232.602203 
	C769.000671,216.603317 768.994446,200.604431 769.003906,184.605545 
	C769.007446,178.581940 770.965149,175.928207 775.393066,175.866547 
	C779.906311,175.803696 781.991394,178.467514 781.995544,184.388077 
	C782.006714,200.386963 781.999268,216.385864 781.999207,232.384750 
	C781.999207,234.150681 781.999207,235.916611 781.999207,237.618652 
	C794.698914,237.618652 806.752441,237.618652 819.000610,237.618652 
	C819.000610,219.414551 818.982117,201.592087 819.011963,183.769699 
	C819.020813,178.452362 821.373169,175.779221 825.762146,175.877975 
	C829.927368,175.971695 831.979004,178.502029 831.989807,183.751343 
	C832.017517,197.250366 831.999390,210.749451 831.999573,224.248520 
	C831.999634,228.697159 831.999573,233.145798 831.999573,237.570557 
	C844.910767,237.570557 857.270752,237.570557 869.005249,237.570557 
	C869.005249,218.171341 869.622559,199.181229 868.859009,180.246780 
	C867.744202,152.602554 838.719055,133.630890 812.747620,143.143066 
	C808.482361,144.705231 804.735413,149.618393 800.786011,149.575409 
	C796.640137,149.530304 792.762390,144.797211 788.379700,143.136108 
	C768.417236,135.570190 745.775940,145.362488 735.538208,166.149292 
M875.998352,189.587982 
	C876.102478,217.983459 893.687683,236.868561 921.841797,238.820251 
	C930.513184,239.421371 930.842712,239.120850 930.844543,230.596619 
	C930.845825,224.930115 930.845337,219.263626 930.845398,213.597122 
	C930.845459,208.851974 930.845337,204.106827 930.845337,199.201050 
	C921.079346,201.709686 916.612610,199.715958 914.474365,192.372910 
	C912.940430,187.105362 916.852295,180.202560 922.034790,179.031815 
	C928.030212,177.677414 932.866089,180.857010 934.035400,187.149048 
	C934.577576,190.066559 934.927429,193.061523 934.955994,196.025314 
	C935.062012,207.023956 934.998230,218.024246 934.998169,229.023911 
	C934.998169,231.947113 934.998169,234.870316 934.998169,237.747559 
	C948.008484,237.747559 960.276733,237.747559 973.911072,237.747559 
	C972.933594,217.744293 973.457520,197.834961 970.655151,178.405396 
	C966.602295,150.305603 939.528625,135.889893 914.413513,141.569275 
	C891.769470,146.689850 877.436707,164.727417 875.998352,189.587982 
M1018.820679,236.148117 
	C1018.828918,218.828979 1018.812317,201.509766 1018.859741,184.190735 
	C1018.875000,178.615189 1020.948303,176.094681 1025.327393,176.005920 
	C1029.961792,175.911972 1032.128784,178.478348 1032.142456,184.344925 
	C1032.179688,200.331970 1032.156128,216.319183 1032.156616,232.306320 
	C1032.156616,234.077164 1032.156616,235.847992 1032.156616,237.761780 
	C1045.211914,237.761780 1057.627686,237.761780 1070.228638,237.761780 
	C1070.362427,236.747421 1070.559448,235.946136 1070.560547,235.144592 
	C1070.579590,220.822800 1070.793335,206.496185 1070.478027,192.181335 
	C1070.332886,185.594986 1069.954468,178.815811 1068.276855,172.497025 
	C1062.461060,150.590836 1041.244385,137.313782 1017.520020,141.172852 
	C997.318787,144.458832 981.096985,161.718246 981.009216,184.420944 
	C980.950623,199.575195 980.998108,214.729843 980.998108,229.884323 
	C980.998108,232.483276 980.998108,235.082245 980.998108,237.971344 
	C993.429199,237.971344 1005.226196,237.983582 1017.022949,237.933136 
	C1017.578979,237.930756 1018.132629,237.371399 1018.820679,236.148117 
M656.810120,150.642441 
	C646.349060,142.601318 634.752991,139.220993 621.464172,140.913132 
	C603.007507,143.263321 585.518005,159.207306 584.305847,177.637100 
	C583.008545,197.361526 583.559814,217.207642 583.334229,237.001007 
	C583.331299,237.253403 583.723145,237.510330 583.861206,237.679764 
	C596.184448,237.679764 608.433350,237.679764 621.001282,237.679764 
	C621.001282,219.897095 620.987915,202.434387 621.008972,184.971710 
	C621.015808,179.295456 623.605225,176.020248 627.979126,176.002975 
	C632.473999,175.985229 634.983215,179.107010 634.991272,184.877701 
	C635.013489,200.700882 634.999023,216.524109 634.999023,232.347321 
	C634.999023,234.116150 634.998962,235.884995 634.998962,237.641510 
	C647.996826,237.641510 660.377991,237.641510 672.848083,237.641510 
	C672.848083,219.476913 673.185425,201.663925 672.735413,183.870865 
	C672.407959,170.919586 667.398071,159.712753 656.810120,150.642441 
M516.163269,182.286560 
	C517.036438,180.325104 517.832092,178.324646 518.796387,176.409058 
	C522.609436,168.834335 533.821289,167.708923 538.030090,174.157700 
	C532.638977,177.267899 527.253235,180.374969 521.385010,183.760437 
	C524.889587,190.320129 528.210388,196.535828 531.670471,203.012192 
	C547.582642,194.334702 563.246399,185.792709 579.259399,177.060242 
	C577.713745,173.805359 576.406189,170.810364 574.900574,167.918427 
	C560.275574,139.827194 525.347717,131.652710 499.690857,150.290344 
	C473.429321,169.367233 474.157562,212.590027 501.039520,230.910263 
	C512.882141,238.981110 525.948242,241.287048 539.894287,238.951019 
	C555.405701,236.352814 567.455505,227.734192 577.520630,217.827469 
	C570.489014,209.941284 563.882263,202.531601 558.214722,196.175323 
	C551.560852,200.035965 546.374878,204.077209 540.497375,206.233170 
	C529.377991,210.311951 519.126038,205.086212 516.515137,194.544922 
	C515.618591,190.925079 516.149353,186.951691 516.163269,182.286560 
M433.091705,140.436935 
	C422.584259,139.902420 412.415802,141.462494 403.511841,147.244614 
	C386.547211,158.261215 378.476837,173.978943 379.971588,194.356979 
	C381.277924,212.166779 389.873016,225.576859 405.412598,233.925064 
	C429.870056,247.064133 459.429169,237.394867 477.607086,216.235901 
	C470.420776,209.444641 463.221710,202.641312 455.366180,195.217606 
	C454.124878,196.819107 453.295349,198.352722 452.057800,199.407761 
	C445.933960,204.628799 439.117065,208.049606 430.725616,207.219177 
	C422.719543,206.426926 416.957581,201.406387 415.158264,193.488068 
	C413.195648,184.850784 416.964020,174.676636 423.431122,171.152420 
	C428.117432,168.598633 433.541748,169.741013 437.218628,174.309555 
	C431.764252,177.386429 426.353180,180.438873 420.593170,183.688171 
	C424.137421,190.306473 427.520752,196.624222 430.940521,203.010086 
	C447.002686,194.248627 462.520538,185.784073 478.392456,177.126373 
	C470.200714,156.402847 456.490234,143.158585 433.091705,140.436935 
M362.048706,144.234695 
	C357.290161,147.286209 352.531616,150.337738 347.602448,153.498672 
	C347.602448,150.091461 347.602448,146.334290 347.602448,142.438568 
	C334.592590,142.438568 322.031189,142.438568 309.349243,142.438568 
	C309.349243,174.393539 309.349243,206.064255 309.349243,237.607269 
	C322.746246,237.607269 335.788635,237.607269 349.001831,237.607269 
	C349.001831,226.234116 348.928925,215.254364 349.019531,204.275940 
	C349.144226,189.170517 355.674805,179.876923 368.062653,177.232208 
	C371.571991,176.483002 375.188660,176.236420 378.721802,175.763931 
	C378.721802,164.431915 378.721802,153.520538 378.721802,141.685669 
	C373.163849,142.517807 368.001831,143.290680 362.048706,144.234695 
M567.070740,292.500000 
	C567.070740,302.588501 567.070740,312.677002 567.070740,322.765533 
	C572.371582,322.765533 576.970764,322.765533 581.955933,322.765533 
	C581.697266,306.370514 583.837341,290.089874 578.117676,274.270996 
	C579.000732,274.549744 579.454651,274.828827 579.695190,275.234375 
	C588.471802,290.029175 597.194458,304.856201 606.044434,319.606842 
	C606.867981,320.979401 608.445618,322.796051 609.733826,322.846252 
	C617.501709,323.148987 625.287231,322.996735 633.214111,322.996735 
	C633.214111,302.091614 633.214111,281.687683 633.214111,261.353149 
	C628.328308,261.353149 623.759521,261.353149 618.870605,261.353149 
	C618.870605,275.261749 618.870605,288.817139 618.870605,303.519287 
	C617.463257,301.422150 616.635925,300.268188 615.889160,299.064270 
	C608.822754,287.672424 601.813293,276.244781 594.662170,264.906494 
	C593.700439,263.381653 592.093628,261.244629 590.701721,261.179443 
	C582.952881,260.816589 575.178223,261.005188 567.070801,261.005188 
	C567.070801,271.573059 567.070801,281.536530 567.070740,292.500000 
M940.070740,288.500000 
	C940.070740,299.920471 940.070740,311.340973 940.070740,322.766327 
	C945.369263,322.766327 949.968323,322.766327 954.956299,322.766327 
	C954.695374,306.371643 956.841003,290.090027 951.117249,274.270264 
	C952.000366,274.548523 952.454590,274.827148 952.695068,275.232574 
	C961.471680,290.027740 970.194153,304.855286 979.044006,319.606415 
	C979.867432,320.978851 981.444031,322.796143 982.731628,322.846344 
	C990.499512,323.149048 998.285156,322.996857 1006.215088,322.996857 
	C1006.215088,302.092804 1006.215088,281.688538 1006.215088,261.352539 
	C1001.330017,261.352539 996.762085,261.352539 991.872986,261.352539 
	C991.872986,275.261292 991.872986,288.816956 991.872986,303.516724 
	C990.465149,301.424011 989.635681,300.272003 988.889160,299.068542 
	C981.823181,287.676666 974.814453,276.248840 967.664062,264.910370 
	C966.701965,263.384766 965.095764,261.245239 963.703979,261.180023 
	C955.955078,260.816833 948.180298,261.005646 940.070618,261.005646 
	C940.070618,270.238953 940.070618,278.869476 940.070740,288.500000 
M355.491882,260.994934 
	C348.175476,260.994934 340.859070,260.994934 333.173828,260.994934 
	C328.041901,281.597992 322.947296,302.051239 317.774597,322.818054 
	C325.148621,322.818054 331.933075,322.818054 338.861053,322.818054 
	C340.359680,316.135040 341.827911,309.587433 343.578461,301.781036 
	C350.614014,309.801483 361.110291,312.673401 364.832703,322.732513 
	C371.628693,322.732513 378.378113,322.732513 385.489960,322.732513 
	C381.404175,306.362030 377.427551,290.328430 373.388092,274.310699 
	C372.303070,270.008392 372.295624,264.133301 369.483154,261.931946 
	C366.645172,259.710602 360.937225,261.155975 355.491882,260.994934 
M514.611755,260.995087 
	C512.290894,260.995087 509.970001,260.995087 507.175690,260.995087 
	C502.052765,281.545074 496.951416,302.008453 491.771637,322.786438 
	C499.008026,322.786438 505.787811,322.786438 512.822754,322.786438 
	C514.341614,316.144653 515.855835,309.523376 517.589294,301.943268 
	C524.819763,309.679749 534.933594,312.866211 538.929321,322.752686 
	C545.465088,322.752686 552.225281,322.752686 559.039612,322.752686 
	C558.994202,321.834808 559.068726,321.145203 558.912903,320.512329 
	C554.256348,301.597992 549.640869,282.672699 544.753418,263.817963 
	C544.436707,262.595917 542.023438,261.166809 540.545227,261.120605 
	C532.230530,260.860718 523.903564,260.995148 514.611755,260.995087 
M688.964417,261.399658 
	C687.977478,261.530823 686.985657,261.632507 686.004395,261.797668 
	C675.706787,263.530975 672.646790,266.930054 672.510803,277.287109 
	C672.381897,287.105957 672.586548,296.929230 672.450806,306.747894 
	C672.329468,315.529999 673.714050,320.189911 685.573120,321.789429 
	C695.037720,323.065948 704.813232,323.103058 714.362915,322.435181 
	C729.073730,321.406372 731.317078,318.371765 730.972107,303.746643 
	C730.961365,303.288086 730.754578,302.834167 730.614258,302.279907 
	C724.113464,302.279907 717.723572,302.279907 710.996582,302.279907 
	C710.996582,305.523407 711.160950,308.502380 710.922852,311.448853 
	C710.814026,312.796021 710.051453,315.124390 709.347168,315.218079 
	C705.403687,315.742828 701.292358,316.323608 697.423279,315.713196 
	C693.700500,315.125885 694.016235,311.363190 694.011597,308.381897 
	C693.990051,294.400146 693.991760,280.418335 694.020264,266.436615 
	C694.022705,265.234192 694.283264,264.032288 694.565491,261.619843 
	C700.871399,268.479980 710.927490,270.222473 711.485046,280.658325 
	C718.001221,280.658325 724.400574,280.658325 731.001648,280.658325 
	C731.001648,278.830902 730.999023,277.346680 731.002075,275.862488 
	C731.023926,265.365448 729.190369,262.743134 718.733459,261.857391 
	C709.159912,261.046509 699.489624,261.379486 688.964417,261.399658 
M1023.486633,272.944397 
	C1022.492432,272.430634 1021.498230,271.916901 1020.504028,271.403168 
	C1020.852295,270.874390 1021.200500,270.345642 1021.548767,269.816864 
	C1033.565063,269.816864 1045.581421,269.816864 1057.579590,269.816864 
	C1057.579590,266.661469 1057.579590,264.065308 1057.579590,261.377441 
	C1042.973633,261.377441 1028.626343,261.377441 1014.298218,261.377441 
	C1014.298218,282.006195 1014.298218,302.252869 1014.298218,322.750916 
	C1029.410278,322.750916 1044.293335,322.750916 1059.398193,322.750916 
	C1059.398193,319.806213 1059.398193,317.086578 1059.398193,313.916168 
	C1051.188477,313.916168 1043.280640,313.916168 1035.308838,313.916168 
	C1035.308838,307.406677 1035.308838,301.354095 1035.308838,294.824951 
	C1042.342407,294.824951 1049.079346,294.824951 1055.625977,294.824951 
	C1055.625977,291.936218 1055.625977,289.550507 1055.625977,286.901825 
	C1048.624268,286.901825 1041.998169,286.901825 1036.809937,286.901825 
	C1034.627563,283.747070 1033.311646,281.240021 1031.427124,279.279755 
	C1029.260376,277.026093 1026.590332,275.256287 1023.486633,272.944397 
M929.002319,274.508362 
	C929.002319,270.085510 929.002319,265.662659 929.002319,261.411804 
	C921.625671,261.411804 914.914795,261.411804 908.331665,261.411804 
	C908.331665,282.073395 908.331665,302.319611 908.331665,322.685303 
	C915.306519,322.685303 922.016541,322.685303 929.002258,322.685303 
	C929.002258,306.748108 929.002258,291.126526 929.002319,274.508362 
M825.390198,323.002350 
	C827.157349,323.002350 828.924438,323.002350 830.687805,323.002350 
	C830.687805,302.030273 830.687805,281.655975 830.687805,261.396362 
	C823.655396,261.396362 816.943970,261.396362 810.321289,261.396362 
	C810.321289,282.044769 810.321289,302.293365 810.321289,323.002350 
	C815.178528,323.002350 819.798645,323.002350 825.390198,323.002350 
M460.071075,284.500000 
	C460.071075,297.244446 460.071075,309.988892 460.071075,322.607178 
	C467.465851,322.607178 474.179932,322.607178 480.770874,322.607178 
	C480.770874,301.956970 480.770874,281.702820 480.770874,261.310303 
	C473.827881,261.310303 467.119293,261.310303 460.070984,261.310303 
	C460.070984,268.912781 460.070984,276.206390 460.071075,284.500000 
z"/>
<path fill="#78BD42" opacity="1.000000" stroke="none" 
	d="
M1276.000000,199.531601 
	C1273.994141,204.930573 1272.377075,210.064789 1269.919189,214.758713 
	C1253.947632,245.259521 1210.390381,248.443588 1190.006104,220.703674 
	C1172.882080,197.400452 1176.785034,167.525757 1199.439209,150.106491 
	C1223.309082,131.752533 1258.449341,139.825775 1271.838257,169.454636 
	C1273.320679,172.735260 1274.146240,176.312744 1275.638184,179.876266 
	C1276.000000,186.354401 1276.000000,192.708786 1276.000000,199.531601 
M1224.031982,180.416946 
	C1222.891113,181.358688 1221.494995,182.115997 1220.656860,183.276382 
	C1218.030396,186.912384 1217.146240,191.247559 1219.781372,194.856186 
	C1221.620239,197.374512 1225.087646,200.132339 1227.844849,200.150482 
	C1230.611206,200.168671 1234.934082,197.460449 1235.804565,194.976318 
	C1237.003540,191.555283 1236.564331,186.795609 1235.057983,183.392258 
	C1233.326050,179.478958 1228.984741,178.679688 1224.031982,180.416946 
z"/>
<path fill="#02A549" opacity="1.000000" stroke="none" 
	d="
M26.932381,73.037857 
	C18.506210,65.747467 10.080043,58.457077 1.326937,51.083344 
	C1.000000,51.000000 1.000000,50.500000 1.000000,50.250000 
	C10.090070,44.626041 19.415510,39.876862 30.820019,39.078999 
	C31.440392,39.158291 31.854013,39.249218 31.908901,39.656872 
	C31.238701,46.444714 30.671043,52.848083 29.736149,59.197380 
	C29.051422,63.847664 27.884424,68.426933 26.932381,73.037857 
z"/>
<path fill="#06A649" opacity="1.000000" stroke="none" 
	d="
M66.039185,22.967379 
	C66.018646,15.916194 65.998116,8.865010 65.988785,1.406913 
	C66.444443,1.000000 66.888893,1.000000 67.666672,1.000001 
	C73.936775,4.762259 79.873550,8.524516 85.748116,12.880125 
	C79.136993,16.638111 72.588089,19.802744 66.039185,22.967379 
z"/>
<path fill="#78BD42" opacity="1.000000" stroke="none" 
	d="
M181.731384,216.295990 
	C169.212585,201.495026 164.189728,184.817749 165.739883,165.814560 
	C168.071671,137.229294 189.804245,111.562386 220.566360,105.581284 
	C245.034897,100.823853 266.416260,107.434990 284.949432,123.831543 
	C285.418915,124.246887 285.685822,124.891205 286.235992,125.709534 
	C277.012085,134.403641 267.861664,143.028473 259.712097,150.709915 
	C251.753204,147.973465 244.679230,144.110870 237.265945,143.281601 
	C220.331589,141.387283 204.786545,155.545441 206.783646,175.220276 
	C207.888031,186.100113 214.777817,195.683624 224.870819,199.119064 
	C235.212479,202.639145 246.336441,199.538773 253.680878,191.075790 
	C254.078949,190.617096 254.389175,190.082214 255.154480,188.993683 
	C245.597824,188.993683 236.705933,188.993683 227.407898,188.993683 
	C227.407898,177.905380 227.407898,167.215332 227.407898,156.259277 
	C252.027695,156.259277 276.612823,156.259277 302.289703,156.259277 
	C301.856537,163.648987 301.845459,171.068451 300.907471,178.368805 
	C298.811432,194.682281 292.934570,209.415161 281.076477,221.266403 
	C257.004608,245.324478 216.395035,246.966476 190.452255,224.901489 
	C187.438812,222.338486 184.780579,219.357880 181.731384,216.295990 
z"/>
<path fill="#78BD41" opacity="1.000000" stroke="none" 
	d="
M735.732178,165.817581 
	C745.775940,145.362488 768.417236,135.570190 788.379700,143.136108 
	C792.762390,144.797211 796.640137,149.530304 800.786011,149.575409 
	C804.735413,149.618393 808.482361,144.705231 812.747620,143.143066 
	C838.719055,133.630890 867.744202,152.602554 868.859009,180.246780 
	C869.622559,199.181229 869.005249,218.171341 869.005249,237.570557 
	C857.270752,237.570557 844.910767,237.570557 831.999573,237.570557 
	C831.999573,233.145798 831.999634,228.697159 831.999573,224.248520 
	C831.999390,210.749451 832.017517,197.250366 831.989807,183.751343 
	C831.979004,178.502029 829.927368,175.971695 825.762146,175.877975 
	C821.373169,175.779221 819.020813,178.452362 819.011963,183.769699 
	C818.982117,201.592087 819.000610,219.414551 819.000610,237.618652 
	C806.752441,237.618652 794.698914,237.618652 781.999207,237.618652 
	C781.999207,235.916611 781.999207,234.150681 781.999207,232.384750 
	C781.999268,216.385864 782.006714,200.386963 781.995544,184.388077 
	C781.991394,178.467514 779.906311,175.803696 775.393066,175.866547 
	C770.965149,175.928207 769.007446,178.581940 769.003906,184.605545 
	C768.994446,200.604431 769.000671,216.603317 769.000671,232.602203 
	C769.000671,234.227859 769.000671,235.853531 769.000671,237.737396 
	C756.628540,237.737396 744.693787,237.737396 731.999512,237.737396 
	C731.999512,236.215134 731.999512,234.632401 731.999512,233.049683 
	C731.999451,216.550827 731.697632,200.043472 732.161682,183.557678 
	C732.325806,177.727814 734.358582,171.950562 735.732178,165.817581 
z"/>
<path fill="#78BD42" opacity="1.000000" stroke="none" 
	d="
M1148.908813,143.018768 
	C1149.157104,143.653137 1149.222412,144.625824 1149.680054,144.873322 
	C1171.528687,156.689377 1178.743042,183.009262 1173.584595,206.187073 
	C1170.116943,221.767746 1163.662354,236.168579 1152.896606,247.954102 
	C1139.814331,262.275574 1123.343506,270.719177 1103.675781,271.953308 
	C1098.572998,272.273529 1093.417603,272.237335 1088.312500,271.930298 
	C1079.770264,271.416473 1077.691650,266.945099 1082.000732,259.594879 
	C1084.310303,255.655380 1086.665649,251.549866 1087.891602,247.206314 
	C1090.839355,236.762970 1088.099976,226.965256 1083.530029,217.418808 
	C1080.400513,210.881638 1077.075317,204.262787 1075.256348,197.309296 
	C1071.088867,181.378387 1076.503418,167.783493 1086.895996,155.589935 
	C1102.397705,137.401993 1124.531616,133.114227 1148.644043,143.306061 
	C1148.959961,142.981049 1148.908813,143.018753 1148.908813,143.018768 
M1123.627563,212.001389 
	C1134.618896,211.938431 1143.440308,205.975754 1146.786133,196.347916 
	C1149.981689,187.152771 1147.087524,176.499329 1139.771729,170.527771 
	C1131.620850,163.874588 1121.129150,163.047134 1112.314209,168.362259 
	C1103.863647,173.457703 1099.293823,183.883499 1101.398804,193.264633 
	C1103.724243,203.627914 1111.636597,210.571396 1123.627563,212.001389 
z"/>
<path fill="#78BD42" opacity="1.000000" stroke="none" 
	d="
M875.999268,189.118713 
	C877.436707,164.727417 891.769470,146.689850 914.413513,141.569275 
	C939.528625,135.889893 966.602295,150.305603 970.655151,178.405396 
	C973.457520,197.834961 972.933594,217.744293 973.911072,237.747559 
	C960.276733,237.747559 948.008484,237.747559 934.998169,237.747559 
	C934.998169,234.870316 934.998169,231.947113 934.998169,229.023911 
	C934.998230,218.024246 935.062012,207.023956 934.955994,196.025314 
	C934.927429,193.061523 934.577576,190.066559 934.035400,187.149048 
	C932.866089,180.857010 928.030212,177.677414 922.034790,179.031815 
	C916.852295,180.202560 912.940430,187.105362 914.474365,192.372910 
	C916.612610,199.715958 921.079346,201.709686 930.845337,199.201050 
	C930.845337,204.106827 930.845459,208.851974 930.845398,213.597122 
	C930.845337,219.263626 930.845825,224.930115 930.844543,230.596619 
	C930.842712,239.120850 930.513184,239.421371 921.841797,238.820251 
	C893.687683,236.868561 876.102478,217.983459 875.999268,189.118713 
z"/>
<path fill="#78BD42" opacity="1.000000" stroke="none" 
	d="
M1018.754028,236.609772 
	C1018.132629,237.371399 1017.578979,237.930756 1017.022949,237.933136 
	C1005.226196,237.983582 993.429199,237.971344 980.998108,237.971344 
	C980.998108,235.082245 980.998108,232.483276 980.998108,229.884323 
	C980.998108,214.729843 980.950623,199.575195 981.009216,184.420944 
	C981.096985,161.718246 997.318787,144.458832 1017.520020,141.172852 
	C1041.244385,137.313782 1062.461060,150.590836 1068.276855,172.497025 
	C1069.954468,178.815811 1070.332886,185.594986 1070.478027,192.181335 
	C1070.793335,206.496185 1070.579590,220.822800 1070.560547,235.144592 
	C1070.559448,235.946136 1070.362427,236.747421 1070.228638,237.761780 
	C1057.627686,237.761780 1045.211914,237.761780 1032.156616,237.761780 
	C1032.156616,235.847992 1032.156616,234.077164 1032.156616,232.306320 
	C1032.156128,216.319183 1032.179688,200.331970 1032.142456,184.344925 
	C1032.128784,178.478348 1029.961792,175.911972 1025.327393,176.005920 
	C1020.948303,176.094681 1018.875000,178.615189 1018.859741,184.190735 
	C1018.812317,201.509766 1018.828918,218.828979 1018.754028,236.609772 
z"/>
<path fill="#78BD41" opacity="1.000000" stroke="none" 
	d="
M657.095276,150.858673 
	C667.398071,159.712753 672.407959,170.919586 672.735413,183.870865 
	C673.185425,201.663925 672.848083,219.476913 672.848083,237.641510 
	C660.377991,237.641510 647.996826,237.641510 634.998962,237.641510 
	C634.998962,235.884995 634.999023,234.116150 634.999023,232.347321 
	C634.999023,216.524109 635.013489,200.700882 634.991272,184.877701 
	C634.983215,179.107010 632.473999,175.985229 627.979126,176.002975 
	C623.605225,176.020248 621.015808,179.295456 621.008972,184.971710 
	C620.987915,202.434387 621.001282,219.897095 621.001282,237.679764 
	C608.433350,237.679764 596.184448,237.679764 583.861206,237.679764 
	C583.723145,237.510330 583.331299,237.253403 583.334229,237.001007 
	C583.559814,217.207642 583.008545,197.361526 584.305847,177.637100 
	C585.518005,159.207306 603.007507,143.263321 621.464172,140.913132 
	C634.752991,139.220993 646.349060,142.601318 657.095276,150.858673 
z"/>
<path fill="#78BD42" opacity="1.000000" stroke="none" 
	d="
M516.095703,182.713196 
	C516.149353,186.951691 515.618591,190.925079 516.515137,194.544922 
	C519.126038,205.086212 529.377991,210.311951 540.497375,206.233170 
	C546.374878,204.077209 551.560852,200.035965 558.214722,196.175323 
	C563.882263,202.531601 570.489014,209.941284 577.520630,217.827469 
	C567.455505,227.734192 555.405701,236.352814 539.894287,238.951019 
	C525.948242,241.287048 512.882141,238.981110 501.039520,230.910263 
	C474.157562,212.590027 473.429321,169.367233 499.690857,150.290344 
	C525.347717,131.652710 560.275574,139.827194 574.900574,167.918427 
	C576.406189,170.810364 577.713745,173.805359 579.259399,177.060242 
	C563.246399,185.792709 547.582642,194.334702 531.670471,203.012192 
	C528.210388,196.535828 524.889587,190.320129 521.385010,183.760437 
	C527.253235,180.374969 532.638977,177.267899 538.030090,174.157700 
	C533.821289,167.708923 522.609436,168.834335 518.796387,176.409058 
	C517.832092,178.324646 517.036438,180.325104 516.095703,182.713196 
z"/>
<path fill="#78BD42" opacity="1.000000" stroke="none" 
	d="
M433.534973,140.470734 
	C456.490234,143.158585 470.200714,156.402847 478.392456,177.126373 
	C462.520538,185.784073 447.002686,194.248627 430.940521,203.010086 
	C427.520752,196.624222 424.137421,190.306473 420.593170,183.688171 
	C426.353180,180.438873 431.764252,177.386429 437.218628,174.309555 
	C433.541748,169.741013 428.117432,168.598633 423.431122,171.152420 
	C416.964020,174.676636 413.195648,184.850784 415.158264,193.488068 
	C416.957581,201.406387 422.719543,206.426926 430.725616,207.219177 
	C439.117065,208.049606 445.933960,204.628799 452.057800,199.407761 
	C453.295349,198.352722 454.124878,196.819107 455.366180,195.217606 
	C463.221710,202.641312 470.420776,209.444641 477.607086,216.235901 
	C459.429169,237.394867 429.870056,247.064133 405.412598,233.925064 
	C389.873016,225.576859 381.277924,212.166779 379.971588,194.356979 
	C378.476837,173.978943 386.547211,158.261215 403.511841,147.244614 
	C412.415802,141.462494 422.584259,139.902420 433.534973,140.470734 
z"/>
<path fill="#78BD41" opacity="1.000000" stroke="none" 
	d="
M362.444244,144.149109 
	C368.001831,143.290680 373.163849,142.517807 378.721802,141.685669 
	C378.721802,153.520538 378.721802,164.431915 378.721802,175.763931 
	C375.188660,176.236420 371.571991,176.483002 368.062653,177.232208 
	C355.674805,179.876923 349.144226,189.170517 349.019531,204.275940 
	C348.928925,215.254364 349.001831,226.234116 349.001831,237.607269 
	C335.788635,237.607269 322.746246,237.607269 309.349243,237.607269 
	C309.349243,206.064255 309.349243,174.393539 309.349243,142.438568 
	C322.031189,142.438568 334.592590,142.438568 347.602448,142.438568 
	C347.602448,146.334290 347.602448,150.091461 347.602448,153.498672 
	C352.531616,150.337738 357.290161,147.286209 362.444244,144.149109 
z"/>
<path fill="#EC6315" opacity="1.000000" stroke="none" 
	d="
M567.070801,292.000000 
	C567.070801,281.536530 567.070801,271.573059 567.070801,261.005188 
	C575.178223,261.005188 582.952881,260.816589 590.701721,261.179443 
	C592.093628,261.244629 593.700439,263.381653 594.662170,264.906494 
	C601.813293,276.244781 608.822754,287.672424 615.889160,299.064270 
	C616.635925,300.268188 617.463257,301.422150 618.870605,303.519287 
	C618.870605,288.817139 618.870605,275.261749 618.870605,261.353149 
	C623.759521,261.353149 628.328308,261.353149 633.214111,261.353149 
	C633.214111,281.687683 633.214111,302.091614 633.214111,322.996735 
	C625.287231,322.996735 617.501709,323.148987 609.733826,322.846252 
	C608.445618,322.796051 606.867981,320.979401 606.044434,319.606842 
	C597.194458,304.856201 588.471802,290.029175 579.695190,275.234375 
	C579.454651,274.828827 579.000732,274.549744 578.117676,274.270996 
	C583.837341,290.089874 581.697266,306.370514 581.955933,322.765533 
	C576.970764,322.765533 572.371582,322.765533 567.070740,322.765533 
	C567.070740,312.677002 567.070740,302.588501 567.070801,292.000000 
z"/>
<path fill="#EC6315" opacity="1.000000" stroke="none" 
	d="
M940.070679,288.000000 
	C940.070618,278.869476 940.070618,270.238953 940.070618,261.005646 
	C948.180298,261.005646 955.955078,260.816833 963.703979,261.180023 
	C965.095764,261.245239 966.701965,263.384766 967.664062,264.910370 
	C974.814453,276.248840 981.823181,287.676666 988.889160,299.068542 
	C989.635681,300.272003 990.465149,301.424011 991.872986,303.516724 
	C991.872986,288.816956 991.872986,275.261292 991.872986,261.352539 
	C996.762085,261.352539 1001.330017,261.352539 1006.215088,261.352539 
	C1006.215088,281.688538 1006.215088,302.092804 1006.215088,322.996857 
	C998.285156,322.996857 990.499512,323.149048 982.731628,322.846344 
	C981.444031,322.796143 979.867432,320.978851 979.044006,319.606415 
	C970.194153,304.855286 961.471680,290.027740 952.695068,275.232574 
	C952.454590,274.827148 952.000366,274.548523 951.117249,274.270264 
	C956.841003,290.090027 954.695374,306.371643 954.956299,322.766327 
	C949.968323,322.766327 945.369263,322.766327 940.070740,322.766327 
	C940.070740,311.340973 940.070740,299.920471 940.070679,288.000000 
z"/>
<path fill="#EC6316" opacity="1.000000" stroke="none" 
	d="
M355.989258,260.994934 
	C360.937225,261.155975 366.645172,259.710602 369.483154,261.931946 
	C372.295624,264.133301 372.303070,270.008392 373.388092,274.310699 
	C377.427551,290.328430 381.404175,306.362030 385.489960,322.732513 
	C378.378113,322.732513 371.628693,322.732513 364.832703,322.732513 
	C361.110291,312.673401 350.614014,309.801483 343.578461,301.781036 
	C341.827911,309.587433 340.359680,316.135040 338.861053,322.818054 
	C331.933075,322.818054 325.148621,322.818054 317.774597,322.818054 
	C322.947296,302.051239 328.041901,281.597992 333.173828,260.994934 
	C340.859070,260.994934 348.175476,260.994934 355.989258,260.994934 
M355.207397,278.192322 
	C354.182129,273.441559 353.156891,268.690796 352.131622,263.940033 
	C351.866608,263.993958 351.601624,264.047882 351.336609,264.101807 
	C348.789948,275.778290 346.243317,287.454803 343.664886,299.276917 
	C349.440399,299.276917 354.321106,299.276917 359.674316,299.276917 
	C358.196869,292.225647 356.812378,285.618164 355.207397,278.192322 
z"/>
<path fill="#EC6316" opacity="1.000000" stroke="none" 
	d="
M515.096252,260.995056 
	C523.903564,260.995148 532.230530,260.860718 540.545227,261.120605 
	C542.023438,261.166809 544.436707,262.595917 544.753418,263.817963 
	C549.640869,282.672699 554.256348,301.597992 558.912903,320.512329 
	C559.068726,321.145203 558.994202,321.834808 559.039612,322.752686 
	C552.225281,322.752686 545.465088,322.752686 538.929321,322.752686 
	C534.933594,312.866211 524.819763,309.679749 517.589294,301.943268 
	C515.855835,309.523376 514.341614,316.144653 512.822754,322.786438 
	C505.787811,322.786438 499.008026,322.786438 491.771637,322.786438 
	C496.951416,302.008453 502.052765,281.545074 507.175690,260.995087 
	C509.970001,260.995087 512.290894,260.995087 515.096252,260.995056 
M524.507568,268.186066 
	C522.226868,278.479919 519.946228,288.773743 517.588745,299.414124 
	C523.263367,299.414124 528.188477,299.414124 533.729919,299.414124 
	C531.172668,287.361633 528.689331,275.657562 526.206055,263.953491 
	C525.929382,264.001892 525.652771,264.050293 525.376160,264.098694 
	C525.159058,265.219879 524.942017,266.341095 524.507568,268.186066 
z"/>
<path fill="#F08D2F" opacity="1.000000" stroke="none" 
	d="
M155.035706,123.093048 
	C148.957550,135.358780 145.392258,148.199402 145.799896,162.651077 
	C144.649399,165.379913 143.430222,167.415955 143.068863,169.594269 
	C139.884628,188.789398 136.966110,208.028824 133.745453,227.217621 
	C130.280090,247.864365 126.573685,268.470642 122.972450,289.094574 
	C120.059143,286.970398 117.145836,284.846252 114.246689,282.053650 
	C115.352585,275.890961 116.533913,270.412689 117.517799,264.899170 
	C119.721138,252.552109 121.904465,240.200470 123.952812,227.826981 
	C126.970268,209.599396 129.841110,191.347580 132.815811,173.112839 
	C135.180801,158.615692 137.596069,144.126709 140.010437,129.637665 
	C142.695602,113.523476 145.404099,97.413170 148.104263,81.301483 
	C150.067032,69.589790 152.032730,57.878597 153.997147,46.167183 
	C157.692795,46.123264 161.388443,46.079346 165.541473,46.543884 
	C163.843704,61.670219 161.658310,76.283730 159.543457,90.907440 
	C157.992920,101.629036 156.534943,112.364029 155.035706,123.093048 
z"/>
<path fill="#EA6A2E" opacity="1.000000" stroke="none" 
	d="
M102.925980,61.963013 
	C107.688896,59.638451 112.451828,57.313889 117.600266,55.383713 
	C117.223526,62.000858 116.707176,68.265541 115.654800,74.438850 
	C111.884483,96.555954 107.790977,118.618446 104.094254,140.747452 
	C101.131348,158.483643 98.721291,176.311935 95.783081,194.052536 
	C92.683296,212.768646 89.248245,231.429245 85.959656,250.114090 
	C82.045822,243.964188 78.131981,237.814270 74.452942,231.149628 
	C75.462715,228.861237 76.614166,227.155899 76.950600,225.302597 
	C78.896835,214.581528 80.633057,203.822495 82.473869,193.082062 
	C85.625725,174.692245 88.847916,156.314377 91.956558,137.917297 
	C95.587631,116.428490 99.206642,94.936890 102.634689,73.415245 
	C103.230095,69.677208 102.853577,65.784355 102.925980,61.963013 
z"/>
<path fill="#FCCE01" opacity="1.000000" stroke="none" 
	d="
M228.999512,273.088898 
	C241.685165,277.384186 254.679474,279.862671 268.550781,280.249146 
	C267.806580,287.222168 266.457367,293.655182 265.488251,300.144989 
	C263.863800,311.022675 262.481598,321.936523 260.997467,332.835175 
	C247.206024,332.043396 233.414566,331.251617 219.364777,329.812744 
	C222.404144,310.473389 225.701828,291.781158 228.999512,273.088898 
z"/>
<path fill="#EC6215" opacity="1.000000" stroke="none" 
	d="
M689.413208,261.304016 
	C699.489624,261.379486 709.159912,261.046509 718.733459,261.857391 
	C729.190369,262.743134 731.023926,265.365448 731.002075,275.862488 
	C730.999023,277.346680 731.001648,278.830902 731.001648,280.658325 
	C724.400574,280.658325 718.001221,280.658325 711.485046,280.658325 
	C710.927490,270.222473 700.871399,268.479980 694.565491,261.619843 
	C694.283264,264.032288 694.022705,265.234192 694.020264,266.436615 
	C693.991760,280.418335 693.990051,294.400146 694.011597,308.381897 
	C694.016235,311.363190 693.700500,315.125885 697.423279,315.713196 
	C701.292358,316.323608 705.403687,315.742828 709.347168,315.218079 
	C710.051453,315.124390 710.814026,312.796021 710.922852,311.448853 
	C711.160950,308.502380 710.996582,305.523407 710.996582,302.279907 
	C717.723572,302.279907 724.113464,302.279907 730.614258,302.279907 
	C730.754578,302.834167 730.961365,303.288086 730.972107,303.746643 
	C731.317078,318.371765 729.073730,321.406372 714.362915,322.435181 
	C704.813232,323.103058 695.037720,323.065948 685.573120,321.789429 
	C673.714050,320.189911 672.329468,315.529999 672.450806,306.747894 
	C672.586548,296.929230 672.381897,287.105957 672.510803,277.287109 
	C672.646790,266.930054 675.706787,263.530975 686.004395,261.797668 
	C686.985657,261.632507 687.977478,261.530823 689.413208,261.304016 
z"/>
<path fill="#EE852F" opacity="1.000000" stroke="none" 
	d="
M153.583069,46.102051 
	C152.032730,57.878597 150.067032,69.589790 148.104263,81.301483 
	C145.404099,97.413170 142.695602,113.523476 140.010437,129.637665 
	C137.596069,144.126709 135.180801,158.615692 132.815811,173.112839 
	C129.841110,191.347580 126.970268,209.599396 123.952812,227.826981 
	C121.904465,240.200470 119.721138,252.552109 117.517799,264.899170 
	C116.533913,270.412689 115.352585,275.890961 114.104904,281.745239 
	C111.030724,279.283295 108.112480,276.461334 105.429741,273.264160 
	C106.431114,271.319366 107.623558,269.820740 107.898125,268.169464 
	C111.392738,247.153076 114.652298,226.097443 118.177895,205.086395 
	C122.686813,178.215164 127.385574,151.375778 131.997910,124.521881 
	C134.960159,107.275002 138.043030,90.047394 140.816681,72.770187 
	C142.176849,64.297668 142.956116,55.731892 143.998276,47.208321 
	C147.055176,46.817852 150.112091,46.427387 153.583069,46.102051 
z"/>
<path fill="#E85B2E" opacity="1.000000" stroke="none" 
	d="
M102.573822,62.011917 
	C102.853577,65.784355 103.230095,69.677208 102.634689,73.415245 
	C99.206642,94.936890 95.587631,116.428490 91.956558,137.917297 
	C88.847916,156.314377 85.625725,174.692245 82.473869,193.082062 
	C80.633057,203.822495 78.896835,214.581528 76.950600,225.302597 
	C76.614166,227.155899 75.462715,228.861237 74.371719,230.805145 
	C71.192711,224.871857 68.329720,218.768341 65.742928,212.256500 
	C66.650795,211.142807 67.693581,210.515930 67.845772,209.718994 
	C68.679695,205.352356 69.273354,200.940414 69.989510,196.550568 
	C73.092659,177.528946 76.161705,158.501572 79.334503,139.491547 
	C82.832260,118.534576 86.462875,97.599739 89.934784,76.638565 
	C90.295753,74.459236 89.973099,72.166672 89.967636,69.926651 
	C94.052315,67.304710 98.136993,64.682762 102.573822,62.011917 
z"/>
<path fill="#EC6316" opacity="1.000000" stroke="none" 
	d="
M429.062653,322.081512 
	C429.064972,315.917603 428.907867,309.747986 429.129944,303.591980 
	C429.261261,299.951569 427.729492,297.770691 424.380249,297.075806 
	C418.709534,295.899292 412.954529,295.129761 407.282318,293.959534 
	C404.071198,293.297089 400.777466,292.559021 397.828430,291.191833 
	C389.024292,287.110229 392.387360,278.937714 392.177887,272.240662 
	C392.023621,267.309052 395.036682,263.763092 400.125580,262.756958 
	C413.645935,260.083832 427.203461,259.964264 440.627014,263.206757 
	C445.942688,264.490753 447.967194,267.874146 448.001160,273.519257 
	C448.015015,275.822754 448.003448,278.126404 448.003448,280.714905 
	C441.920654,280.714905 436.155670,280.714905 430.333496,280.714905 
	C427.969360,271.443268 418.297394,269.522034 412.011749,262.219696 
	C412.011749,269.108765 411.687866,274.707153 412.202209,280.227417 
	C412.363831,281.962158 414.498779,284.419220 416.212708,284.931091 
	C421.105835,286.392517 426.245117,287.033203 431.291626,287.974915 
	C432.433258,288.187927 433.603180,288.254517 434.740234,288.486115 
	C450.623474,291.721436 450.707428,295.102448 449.738678,310.985077 
	C449.421631,316.183258 445.859558,319.776031 440.667053,320.955872 
	C437.141174,321.757019 433.466156,321.901703 429.441101,322.190369 
	C429.024384,322.040802 429.062653,322.081512 429.062653,322.081512 
z"/>
<path fill="#EC6316" opacity="1.000000" stroke="none" 
	d="
M877.062805,322.081635 
	C877.065063,315.917816 876.907654,309.748199 877.130005,303.592316 
	C877.261475,299.951263 875.727905,297.771301 872.380005,297.076263 
	C866.709534,295.899017 860.954407,295.129761 855.282227,293.959473 
	C852.071228,293.297058 848.777771,292.558716 845.828491,291.192047 
	C837.022522,287.111481 840.388794,278.938568 840.177917,272.242249 
	C840.022644,267.310211 843.036377,263.764191 848.124268,262.758026 
	C861.644409,260.084290 875.202087,259.961060 888.625671,263.206451 
	C893.943787,264.492188 895.968018,267.873993 896.001099,273.516785 
	C896.014648,275.820496 896.003296,278.124329 896.003296,280.714050 
	C889.922302,280.714050 884.157654,280.714050 878.333923,280.714050 
	C875.968079,271.445831 866.302612,269.518066 860.011841,262.225342 
	C860.011841,269.109344 859.687988,274.707581 860.202332,280.227722 
	C860.363892,281.962036 862.499451,284.418030 864.213440,284.930054 
	C869.106384,286.391632 874.245361,287.033325 879.291748,287.974792 
	C880.433411,288.187775 881.604919,288.247345 882.741333,288.481201 
	C898.585327,291.741302 898.715271,295.018555 897.738892,310.983734 
	C897.420959,316.182281 893.857239,319.773712 888.666748,320.955292 
	C885.141357,321.757843 881.466187,321.901794 877.441284,322.190552 
	C877.024597,322.040894 877.062805,322.081635 877.062805,322.081635 
z"/>
<path fill="#EC732E" opacity="1.000000" stroke="none" 
	d="
M86.020828,250.451508 
	C89.248245,231.429245 92.683296,212.768646 95.783081,194.052536 
	C98.721291,176.311935 101.131348,158.483643 104.094254,140.747452 
	C107.790977,118.618446 111.884483,96.555954 115.654800,74.438850 
	C116.707176,68.265541 117.223526,62.000858 117.975433,55.327148 
	C121.058182,53.611782 124.151283,52.347363 127.621880,51.549866 
	C127.942787,53.345406 128.031494,54.698986 127.808182,55.998962 
	C123.250687,82.528908 118.567474,109.037544 114.094498,135.581635 
	C108.632614,167.994263 103.376854,200.441559 97.953255,232.860687 
	C96.429581,241.968307 94.629433,251.029694 92.956100,260.112274 
	C90.664726,257.004486 88.373352,253.896713 86.020828,250.451508 
z"/>
<path fill="#EC6316" opacity="1.000000" stroke="none" 
	d="
M1023.812744,273.110352 
	C1026.590332,275.256287 1029.260376,277.026093 1031.427124,279.279755 
	C1033.311646,281.240021 1034.627563,283.747070 1036.809937,286.901825 
	C1041.998169,286.901825 1048.624268,286.901825 1055.625977,286.901825 
	C1055.625977,289.550507 1055.625977,291.936218 1055.625977,294.824951 
	C1049.079346,294.824951 1042.342407,294.824951 1035.308838,294.824951 
	C1035.308838,301.354095 1035.308838,307.406677 1035.308838,313.916168 
	C1043.280640,313.916168 1051.188477,313.916168 1059.398193,313.916168 
	C1059.398193,317.086578 1059.398193,319.806213 1059.398193,322.750916 
	C1044.293335,322.750916 1029.410278,322.750916 1014.298218,322.750916 
	C1014.298218,302.252869 1014.298218,282.006195 1014.298218,261.377441 
	C1028.626343,261.377441 1042.973633,261.377441 1057.579590,261.377441 
	C1057.579590,264.065308 1057.579590,266.661469 1057.579590,269.816864 
	C1045.581421,269.816864 1033.565063,269.816864 1021.548767,269.816864 
	C1021.200500,270.345642 1020.852295,270.874390 1020.504028,271.403168 
	C1021.498230,271.916901 1022.492432,272.430634 1023.812744,273.110352 
z"/>
<path fill="#ED7F2F" opacity="1.000000" stroke="none" 
	d="
M143.619629,47.172043 
	C142.956116,55.731892 142.176849,64.297668 140.816681,72.770187 
	C138.043030,90.047394 134.960159,107.275002 131.997910,124.521881 
	C127.385574,151.375778 122.686813,178.215164 118.177895,205.086395 
	C114.652298,226.097443 111.392738,247.153076 107.898125,268.169464 
	C107.623558,269.820740 106.431114,271.319366 105.291595,272.957855 
	C103.029274,271.220673 101.140617,269.414581 99.389587,267.078613 
	C102.352921,250.961243 105.287323,235.392471 107.973953,219.781036 
	C110.689690,204.000473 113.081680,188.164368 115.761673,172.377396 
	C118.056992,158.856400 120.681366,145.390930 122.939537,131.864044 
	C125.957771,113.784241 128.784790,95.672325 131.650452,77.567322 
	C133.147629,68.108185 134.551712,58.634319 135.997818,49.167103 
	C138.412216,48.489990 140.826599,47.812878 143.619629,47.172043 
z"/>
<path fill="#EC792F" opacity="1.000000" stroke="none" 
	d="
M135.612015,49.101170 
	C134.551712,58.634319 133.147629,68.108185 131.650452,77.567322 
	C128.784790,95.672325 125.957771,113.784241 122.939537,131.864044 
	C120.681366,145.390930 118.056992,158.856400 115.761673,172.377396 
	C113.081680,188.164368 110.689690,204.000473 107.973953,219.781036 
	C105.287323,235.392471 102.352921,250.961243 99.236923,266.786987 
	C97.038734,264.922577 95.130836,262.819916 93.089523,260.414734 
	C94.629433,251.029694 96.429581,241.968307 97.953255,232.860687 
	C103.376854,200.441559 108.632614,167.994263 114.094498,135.581635 
	C118.567474,109.037544 123.250687,82.528908 127.808182,55.998962 
	C128.031494,54.698986 127.942787,53.345406 127.998932,51.591980 
	C130.407730,50.456528 132.816971,49.745880 135.612015,49.101170 
z"/>
<path fill="#F8B901" opacity="1.000000" stroke="none" 
	d="
M191.139496,249.659607 
	C197.310562,254.241531 203.481613,258.823456 209.781555,264.089600 
	C208.945892,270.265320 207.997208,275.759674 207.013840,281.247772 
	C204.350510,296.111664 201.672440,310.972961 199.000229,325.835266 
	C192.567856,323.919067 186.135483,322.002869 179.354370,319.514069 
	C179.221237,316.821106 179.335663,314.684631 179.669403,312.583038 
	C181.420059,301.558868 183.064758,290.514099 185.060776,279.533691 
	C186.877869,269.537628 189.097382,259.614746 191.139496,249.659607 
z"/>
<path fill="#EB6214" opacity="1.000000" stroke="none" 
	d="
M775.995300,322.765778 
	C767.271851,322.224182 758.431702,322.374969 749.860474,320.930328 
	C742.486328,319.687500 740.027100,315.527435 740.010132,308.173889 
	C739.974365,292.711212 739.999268,277.248383 739.999268,261.392487 
	C746.826050,261.392487 753.545776,261.392487 761.000793,261.392487 
	C761.000793,262.756226 761.000793,264.336304 761.000732,265.916382 
	C761.000610,278.720856 761.099060,291.526520 760.939575,304.329010 
	C760.892273,308.128784 761.777039,310.892975 765.166565,313.107086 
	C768.894348,315.542114 772.180786,318.652985 775.823608,321.941772 
	C775.987732,322.414154 775.995300,322.765778 775.995300,322.765778 
z"/>
<path fill="#E64A2D" opacity="1.000000" stroke="none" 
	d="
M89.618515,69.967354 
	C89.973099,72.166672 90.295753,74.459236 89.934784,76.638565 
	C86.462875,97.599739 82.832260,118.534576 79.334503,139.491547 
	C76.161705,158.501572 73.092659,177.528946 69.989510,196.550568 
	C69.273354,200.940414 68.679695,205.352356 67.845772,209.718994 
	C67.693581,210.515930 66.650795,211.142807 65.658875,211.914429 
	C63.535439,206.557190 61.772240,201.133698 59.986622,195.050537 
	C59.730194,193.948959 59.496189,193.507050 59.262184,193.065140 
	C59.176434,192.606812 59.090679,192.148499 59.383949,191.274139 
	C60.507866,189.272263 61.640793,187.753845 61.930103,186.088837 
	C63.144176,179.101791 63.985889,172.050369 65.181068,165.059662 
	C69.712212,138.556488 74.355286,112.072403 78.837135,85.561012 
	C79.080612,84.120758 78.240356,82.497307 77.904572,80.959129 
	C81.692841,77.308769 85.481117,73.658417 89.618515,69.967354 
z"/>
<path fill="#EC6215" opacity="1.000000" stroke="none" 
	d="
M929.002319,275.006653 
	C929.002258,291.126526 929.002258,306.748108 929.002258,322.685303 
	C922.016541,322.685303 915.306519,322.685303 908.331665,322.685303 
	C908.331665,302.319611 908.331665,282.073395 908.331665,261.411804 
	C914.914795,261.411804 921.625671,261.411804 929.002319,261.411804 
	C929.002319,265.662659 929.002319,270.085510 929.002319,275.006653 
z"/>
<path fill="#EC6215" opacity="1.000000" stroke="none" 
	d="
M824.904419,323.002350 
	C819.798645,323.002350 815.178528,323.002350 810.321289,323.002350 
	C810.321289,302.293365 810.321289,282.044769 810.321289,261.396362 
	C816.943970,261.396362 823.655396,261.396362 830.687805,261.396362 
	C830.687805,281.655975 830.687805,302.030273 830.687805,323.002350 
	C828.924438,323.002350 827.157349,323.002350 824.904419,323.002350 
z"/>
<path fill="#EC6215" opacity="1.000000" stroke="none" 
	d="
M460.071045,284.000000 
	C460.070984,276.206390 460.070984,268.912781 460.070984,261.310303 
	C467.119293,261.310303 473.827881,261.310303 480.770874,261.310303 
	C480.770874,281.702820 480.770874,301.956970 480.770874,322.607178 
	C474.179932,322.607178 467.465851,322.607178 460.071075,322.607178 
	C460.071075,309.988892 460.071075,297.244446 460.071045,284.000000 
z"/>
<path fill="#EC6417" opacity="1.000000" stroke="none" 
	d="
M776.439697,322.790894 
	C775.995300,322.765778 775.987732,322.414154 775.984131,322.238342 
	C776.651855,320.579224 777.896912,319.100006 777.907532,317.612030 
	C778.040527,299.002350 777.994629,280.391357 777.994629,261.387573 
	C784.807678,261.387573 791.504272,261.387573 798.838013,261.387573 
	C798.838013,267.256439 798.838135,273.181549 798.838013,279.106689 
	C798.837830,288.080963 798.856995,297.055328 798.832153,306.029541 
	C798.802490,316.737946 795.476196,320.526184 784.748474,322.026642 
	C782.141174,322.391296 779.506348,322.558197 776.439697,322.790894 
z"/>
<path fill="#FAC301" opacity="1.000000" stroke="none" 
	d="
M199.365921,325.973145 
	C201.672440,310.972961 204.350510,296.111664 207.013840,281.247772 
	C207.997208,275.759674 208.945892,270.265320 209.960175,264.375610 
	C216.098648,266.943848 222.187363,269.910248 228.637787,272.982788 
	C225.701828,291.781158 222.404144,310.473389 219.061844,329.557068 
	C212.588699,328.669312 206.160156,327.390167 199.365921,325.973145 
z"/>
<path fill="#E53C2E" opacity="1.000000" stroke="none" 
	d="
M77.598648,81.102463 
	C78.240356,82.497307 79.080612,84.120758 78.837135,85.561012 
	C74.355286,112.072403 69.712212,138.556488 65.181068,165.059662 
	C63.985889,172.050369 63.144176,179.101791 61.930103,186.088837 
	C61.640793,187.753845 60.507866,189.272263 59.402012,190.921234 
	C54.516758,175.618561 53.179634,159.867737 54.207977,143.986984 
	C55.414806,125.349998 59.790676,107.506119 69.896690,91.481171 
	C72.137581,87.927826 74.815842,84.650307 77.598648,81.102463 
z"/>
<path fill="#FFD901" opacity="1.000000" stroke="none" 
	d="
M261.445190,332.904968 
	C262.481598,321.936523 263.863800,311.022675 265.488251,300.144989 
	C266.457367,293.655182 267.806580,287.222168 268.994751,280.344604 
	C275.704071,278.892822 282.403534,277.860046 289.535339,277.218872 
	C289.964691,278.773834 290.115021,279.961395 289.935577,281.096863 
	C287.542480,296.239838 285.070282,311.370392 282.738556,326.522644 
	C282.554169,327.720642 283.265381,329.056427 283.560394,330.328186 
	C276.337921,331.210388 269.115417,332.092590 261.445190,332.904968 
z"/>
<path fill="#F4A423" opacity="1.000000" stroke="none" 
	d="
M159.008362,311.665649 
	C155.109131,309.662323 151.209900,307.658997 147.301025,304.988831 
	C148.066925,300.109741 148.865921,295.901672 149.613617,291.684479 
	C151.747528,279.648560 153.861267,267.609070 155.981705,255.570755 
	C158.387207,241.914032 160.791351,228.257050 163.196075,214.600189 
	C166.465332,219.319489 169.734589,224.038788 173.012970,229.525452 
	C172.701462,231.406738 172.267731,232.501648 172.076782,233.637360 
	C167.704636,259.644104 163.358963,285.655273 159.008362,311.665649 
z"/>
<path fill="#F1942F" opacity="1.000000" stroke="none" 
	d="
M123.115532,289.394775 
	C126.573685,268.470642 130.280090,247.864365 133.745453,227.217621 
	C136.966110,208.028824 139.884628,188.789398 143.068863,169.594269 
	C143.430222,167.415955 144.649399,165.379913 145.811249,163.109528 
	C147.761429,170.701797 149.371140,178.462448 150.765518,186.916138 
	C150.022079,188.746124 149.216370,189.834396 149.007065,191.027313 
	C145.294128,212.188660 141.655991,233.363113 137.996918,254.533920 
	C135.661224,268.047852 133.317764,281.560455 130.977783,295.073639 
	C128.404724,293.280731 125.831673,291.487854 123.115532,289.394775 
z"/>
<path fill="#F2982D" opacity="1.000000" stroke="none" 
	d="
M155.338623,122.937866 
	C156.534943,112.364029 157.992920,101.629036 159.543457,90.907440 
	C161.658310,76.283730 163.843704,61.670219 165.997803,46.610909 
	C171.082352,46.737740 176.167953,47.305996 181.626938,48.434540 
	C179.505264,63.983768 176.922897,78.959183 174.598358,93.974510 
	C174.195908,96.574181 174.885284,99.342880 175.070358,102.033501 
	C167.554672,107.976624 160.589233,114.434975 155.338623,122.937866 
z"/>
<path fill="#F5AB19" opacity="1.000000" stroke="none" 
	d="
M159.334747,311.840210 
	C163.358963,285.655273 167.704636,259.644104 172.076782,233.637360 
	C172.267731,232.501648 172.701462,231.406738 173.083984,229.844574 
	C176.414322,233.261215 179.682770,237.126099 182.892593,241.702881 
	C182.634338,242.872375 182.329102,243.312561 182.250381,243.790085 
	C179.858185,258.298492 177.403625,272.797455 175.144455,287.326721 
	C173.621765,297.119476 172.379852,306.955933 171.012329,316.772827 
	C167.228607,315.186798 163.444870,313.600800 159.334747,311.840210 
z"/>
<path fill="#F29A2C" opacity="1.000000" stroke="none" 
	d="
M131.130493,295.368958 
	C133.317764,281.560455 135.661224,268.047852 137.996918,254.533920 
	C141.655991,233.363113 145.294128,212.188660 149.007065,191.027313 
	C149.216370,189.834396 150.022079,188.746124 150.770599,187.312454 
	C152.989807,191.753342 154.988617,196.490921 156.684921,201.783325 
	C155.921005,203.518631 155.241638,204.661545 155.030609,205.885239 
	C151.438599,226.713730 147.890472,247.549850 144.363770,268.389526 
	C142.545502,279.133820 140.788177,289.888428 139.003326,300.638367 
	C136.429947,298.980347 133.856567,297.322327 131.130493,295.368958 
z"/>
<path fill="#F39E28" opacity="1.000000" stroke="none" 
	d="
M139.291565,300.855286 
	C140.788177,289.888428 142.545502,279.133820 144.363770,268.389526 
	C147.890472,247.549850 151.438599,226.713730 155.030609,205.885239 
	C155.241638,204.661545 155.921005,203.518631 156.723877,202.155426 
	C159.140198,205.944305 161.215042,209.915863 163.242981,214.243805 
	C160.791351,228.257050 158.387207,241.914032 155.981705,255.570755 
	C153.861267,267.609070 151.747528,279.648560 149.613617,291.684479 
	C148.865921,295.901672 148.066925,300.109741 147.130722,304.691040 
	C144.506653,303.730774 142.043228,302.401459 139.291565,300.855286 
z"/>
<path fill="#FFE503" opacity="1.000000" stroke="none" 
	d="
M283.932373,330.311951 
	C283.265381,329.056427 282.554169,327.720642 282.738556,326.522644 
	C285.070282,311.370392 287.542480,296.239838 289.935577,281.096863 
	C290.115021,279.961395 289.964691,278.773834 289.947205,277.151428 
	C291.438721,276.115662 292.950714,275.538971 294.915894,274.789398 
	C299.181335,287.512909 304.389221,299.708466 303.032196,313.347015 
	C302.158112,322.131897 295.866028,327.785522 283.932373,330.311951 
z"/>
<path fill="#F3A126" opacity="1.000000" stroke="none" 
	d="
M175.391434,101.898300 
	C174.885284,99.342880 174.195908,96.574181 174.598358,93.974510 
	C176.922897,78.959183 179.505264,63.983768 182.001007,48.579857 
	C186.835800,49.258884 191.669937,50.352898 196.459259,51.998558 
	C194.706039,61.893429 192.784378,71.204826 191.383423,80.593918 
	C190.728821,84.981155 191.081223,89.518654 190.977188,93.988037 
	C185.888962,96.579727 180.800735,99.171417 175.391434,101.898300 
z"/>
<path fill="#F8BA03" opacity="1.000000" stroke="none" 
	d="
M243.911789,94.408096 
	C234.903397,92.929825 225.895004,91.451561 216.444672,89.475586 
	C216.207657,86.877090 216.310287,84.760292 216.636154,82.678444 
	C217.716537,75.776321 218.877335,68.886795 220.007294,61.992435 
	C228.533386,67.513992 237.059494,73.035553 245.783417,79.247559 
	C245.291428,84.761375 244.601608,89.584740 243.911789,94.408096 
z"/>
<path fill="#F7B10B" opacity="1.000000" stroke="none" 
	d="
M171.340698,316.926331 
	C172.379852,306.955933 173.621765,297.119476 175.144455,287.326721 
	C177.403625,272.797455 179.858185,258.298492 182.250381,243.790085 
	C182.329102,243.312561 182.634338,242.872375 183.000732,242.010010 
	C185.698639,244.117111 188.229782,246.628998 190.950211,249.400238 
	C189.097382,259.614746 186.877869,269.537628 185.060776,279.533691 
	C183.064758,290.514099 181.420059,301.558868 179.669403,312.583038 
	C179.335663,314.684631 179.221237,316.821106 179.009277,319.370483 
	C176.564972,318.892975 174.117020,317.986389 171.340698,316.926331 
z"/>
<path fill="#F4A81D" opacity="1.000000" stroke="none" 
	d="
M191.369278,93.979546 
	C191.081223,89.518654 190.728821,84.981155 191.383423,80.593918 
	C192.784378,71.204826 194.706039,61.893429 196.696533,52.280750 
	C201.158279,53.496681 205.337921,54.982075 209.465790,56.988312 
	C208.937927,59.247082 208.329758,60.960938 208.007874,62.726971 
	C206.301697,72.088257 204.667465,81.462662 203.008286,90.832520 
	C199.259308,91.878693 195.510345,92.924873 191.369278,93.979546 
z"/>
<path fill="#EC6417" opacity="1.000000" stroke="none" 
	d="
M877.009766,322.017242 
	C874.013855,322.331390 871.026917,322.990265 868.052917,322.936462 
	C862.763916,322.840820 857.454834,322.545624 852.204285,321.915833 
	C842.897095,320.799500 839.958252,317.256042 839.992432,307.873260 
	C839.997742,306.416534 839.993225,304.959747 839.993225,303.250000 
	C846.450684,303.250000 852.518250,303.250000 857.089905,303.250000 
	C859.591248,306.464600 861.163208,309.159882 863.363098,311.166656 
	C867.515259,314.954224 872.028809,318.345612 876.727478,321.991638 
	C877.062805,322.081635 877.024597,322.040894 877.009766,322.017242 
z"/>
<path fill="#EC6417" opacity="1.000000" stroke="none" 
	d="
M429.009583,322.017090 
	C426.013733,322.331207 423.026947,322.990021 420.053009,322.936249 
	C414.764130,322.840698 409.455200,322.545624 404.204834,321.915985 
	C394.895874,320.799683 391.957672,317.256927 391.992096,307.872284 
	C391.997437,306.415680 391.992798,304.959045 391.992798,303.249634 
	C398.451752,303.249634 404.519318,303.249634 409.088379,303.249634 
	C411.591492,306.465332 413.163879,309.159760 415.363708,311.166382 
	C419.515778,314.953796 424.028900,318.345428 428.727295,321.991547 
	C429.062653,322.081512 429.024384,322.040802 429.009583,322.017090 
z"/>
<path fill="#F6AF11" opacity="1.000000" stroke="none" 
	d="
M203.428482,90.897995 
	C204.667465,81.462662 206.301697,72.088257 208.007874,62.726971 
	C208.329758,60.960938 208.937927,59.247082 209.690247,57.263718 
	C213.180145,58.488098 216.393799,59.957909 219.807373,61.710075 
	C218.877335,68.886795 217.716537,75.776321 216.636154,82.678444 
	C216.310287,84.760292 216.207657,86.877090 216.006317,89.409752 
	C211.956161,90.215576 207.902420,90.589531 203.428482,90.897995 
z"/>
<path fill="#FBC908" opacity="1.000000" stroke="none" 
	d="
M244.180878,94.618553 
	C244.601608,89.584740 245.291428,84.761375 245.973267,79.525352 
	C259.658478,89.469353 271.447906,101.717987 281.819031,115.740639 
	C281.725433,116.198090 281.403442,116.449165 281.403442,116.449165 
	C270.240021,107.269333 258.311462,99.397293 244.180878,94.618553 
z"/>
<path fill="#76BD4F" opacity="1.000000" stroke="none" 
	d="
M50.004986,39.872314 
	C52.074337,40.287899 54.143688,40.703484 56.595650,41.670589 
	C56.652073,45.659081 56.428562,49.109505 55.980202,52.530457 
	C54.699051,62.305523 53.326538,72.068611 51.989956,81.836411 
	C49.899792,81.602577 47.809624,81.368752 45.369141,80.579010 
	C46.680874,66.639503 48.342930,53.255909 50.004986,39.872314 
z"/>
<path fill="#4BB34D" opacity="1.000000" stroke="none" 
	d="
M31.854013,39.249218 
	C31.854013,39.249218 31.440392,39.158291 31.246304,39.074753 
	C35.140045,38.826794 39.227879,38.662376 43.666260,39.131428 
	C42.338860,52.856247 40.660915,65.947601 38.982964,79.038948 
	C36.772217,78.224075 34.561470,77.409210 32.449516,76.034988 
	C33.962635,63.589424 35.376961,51.703220 36.858849,39.249218 
	C35.014870,39.249218 33.434441,39.249218 31.854013,39.249218 
z"/>
<path fill="#88C352" opacity="1.000000" stroke="none" 
	d="
M52.426311,81.906204 
	C53.326538,72.068611 54.699051,62.305523 55.980202,52.530457 
	C56.428562,49.109505 56.652073,45.659081 56.967583,41.817863 
	C59.085575,42.252350 61.214245,43.091087 63.600319,44.476795 
	C63.238453,49.066650 62.545845,53.099937 62.015369,57.154438 
	C60.953541,65.270126 59.980450,73.397415 58.970726,81.519920 
	C56.934708,81.671944 54.898685,81.823975 52.426311,81.906204 
z"/>
<path fill="#61B84D" opacity="1.000000" stroke="none" 
	d="
M39.179916,79.342865 
	C40.660915,65.947601 42.338860,52.856247 44.029194,39.317574 
	C45.772820,39.183655 47.504059,39.497059 49.620140,39.841385 
	C48.342930,53.255909 46.680874,66.639503 45.003174,80.429001 
	C43.117310,80.438858 41.247086,80.042816 39.179916,79.342865 
z"/>
<path fill="#99C954" opacity="1.000000" stroke="none" 
	d="
M59.329296,81.574524 
	C59.980450,73.397415 60.953541,65.270126 62.015369,57.154438 
	C62.545845,53.099937 63.238453,49.066650 63.914776,44.638706 
	C66.389687,45.557491 68.807549,46.861340 71.109207,48.599678 
	C70.065384,53.286381 68.826744,57.499550 68.286880,61.800434 
	C67.571678,67.498253 67.402748,73.264641 66.999062,79.001556 
	C64.561996,79.877411 62.124931,80.753273 59.329296,81.574524 
z"/>
<path fill="#A8CF57" opacity="1.000000" stroke="none" 
	d="
M67.358482,78.980804 
	C67.402748,73.264641 67.571678,67.498253 68.286880,61.800434 
	C68.826744,57.499550 70.065384,53.286381 71.389587,48.820999 
	C73.321487,49.690746 74.856804,50.773663 76.693810,52.425503 
	C76.336739,60.345875 75.677986,67.697327 75.019241,75.048782 
	C72.585464,76.352539 70.151680,77.656296 67.358482,78.980804 
z"/>
<path fill="#10A84C" opacity="1.000000" stroke="none" 
	d="
M1164.029297,116.972931 
	C1169.448730,113.043747 1175.723755,112.479843 1183.528076,111.941704 
	C1181.192749,118.582802 1179.141113,124.417198 1176.604248,130.523804 
	C1172.089111,126.188324 1168.059204,121.580627 1164.029297,116.972931 
z"/>
<path fill="#BBD65C" opacity="1.000000" stroke="none" 
	d="
M75.360840,74.988075 
	C75.677986,67.697327 76.336739,60.345875 76.989983,52.575630 
	C81.346016,55.358841 85.707558,58.560848 90.896744,62.370472 
	C85.317932,66.980927 80.510185,70.954147 75.360840,74.988075 
z"/>
<path fill="#2BAE4B" opacity="1.000000" stroke="none" 
	d="
M31.908901,39.656872 
	C33.434441,39.249218 35.014870,39.249218 36.858849,39.249218 
	C35.376961,51.703220 33.962635,63.589424 32.258457,75.742111 
	C30.393978,75.214500 28.819355,74.420403 27.088554,73.332077 
	C27.884424,68.426933 29.051422,63.847664 29.736149,59.197380 
	C30.671043,52.848083 31.238701,46.444714 31.908901,39.656872 
z"/>
<path fill="#5AB64E" opacity="1.000000" stroke="none" 
	d="
M1163.690063,117.008804 
	C1168.059204,121.580627 1172.089111,126.188324 1176.438232,130.847076 
	C1175.051147,133.202957 1173.344971,135.507782 1171.198608,137.655045 
	C1166.484253,132.297226 1162.210083,127.096947 1157.935791,121.896698 
	C1159.740845,120.279373 1161.545898,118.662025 1163.690063,117.008804 
z"/>
<path fill="#61B84D" opacity="1.000000" stroke="none" 
	d="
M70.959671,34.088715 
	C69.792122,32.259823 68.624580,30.430933 67.761246,28.275024 
	C74.880028,24.869108 81.714638,21.832767 88.479370,18.647982 
	C89.185249,18.315657 89.477303,17.104357 89.961365,16.300880 
	C91.286819,17.955250 92.612274,19.609617 93.788116,21.880779 
	C86.078896,26.361288 78.519279,30.225000 70.959671,34.088715 
z"/>
<path fill="#7CBF50" opacity="1.000000" stroke="none" 
	d="
M71.008987,34.420540 
	C78.519279,30.225000 86.078896,26.361288 93.839539,22.214458 
	C94.997040,24.039188 95.953506,26.147030 96.490662,28.624437 
	C88.973450,32.488697 81.875557,35.983391 74.777657,39.478088 
	C73.537872,37.902847 72.298080,36.327610 71.008987,34.420540 
z"/>
<path fill="#99C954" opacity="1.000000" stroke="none" 
	d="
M74.887962,39.751396 
	C81.875557,35.983391 88.973450,32.488697 96.452782,28.985874 
	C97.019325,30.807886 97.204430,32.638023 96.809265,34.772102 
	C90.334106,37.776962 84.439217,40.477882 78.544319,43.178802 
	C77.362305,42.127434 76.180283,41.076065 74.887962,39.751396 
z"/>
<path fill="#40B14C" opacity="1.000000" stroke="none" 
	d="
M89.686005,16.105577 
	C89.477303,17.104357 89.185249,18.315657 88.479370,18.647982 
	C81.714638,21.832767 74.880028,24.869108 67.702072,27.951351 
	C66.887039,26.543177 66.435379,25.131660 66.011444,23.343761 
	C72.588089,19.802744 79.136993,16.638111 85.888626,13.186006 
	C87.197784,13.902448 88.304214,14.906362 89.686005,16.105577 
z"/>
<path fill="#88C352" opacity="1.000000" stroke="none" 
	d="
M1157.630005,122.031616 
	C1162.210083,127.096947 1166.484253,132.297226 1170.899414,137.808365 
	C1169.417603,139.152191 1167.794800,140.185150 1165.541016,141.100937 
	C1160.930664,136.650375 1156.951294,132.317001 1152.972046,127.983627 
	C1154.422729,126.044601 1155.873535,124.105576 1157.630005,122.031616 
z"/>
<path fill="#99C954" opacity="1.000000" stroke="none" 
	d="
M1152.685547,128.167633 
	C1156.951294,132.317001 1160.930664,136.650375 1165.222656,141.211731 
	C1163.302856,141.939758 1161.070312,142.439804 1158.383545,142.551926 
	C1155.287476,139.437317 1152.645752,136.710648 1150.003906,133.983963 
	C1150.802246,132.106522 1151.600586,130.229080 1152.685547,128.167633 
z"/>
<path fill="#A8CF57" opacity="1.000000" stroke="none" 
	d="
M78.765152,43.445419 
	C84.439217,40.477882 90.334106,37.776962 96.589859,35.030083 
	C96.797729,37.124950 96.644745,39.265785 95.837006,41.700653 
	C91.420502,43.683338 87.658760,45.371986 83.897026,47.060631 
	C82.260017,45.944431 80.623001,44.828232 78.765152,43.445419 
z"/>
<path fill="#06A649" opacity="1.000000" stroke="none" 
	d="
M1135.023682,120.012817 
	C1136.623413,116.235962 1138.223145,112.459114 1139.822876,108.682274 
	C1140.472656,108.613037 1141.122437,108.543793 1141.772217,108.474556 
	C1143.436157,111.751587 1145.100098,115.028618 1146.809570,118.577087 
	C1146.855225,118.848534 1146.669678,118.941734 1146.255493,118.956650 
	C1142.339478,119.293869 1138.837646,119.616173 1135.242188,119.892006 
	C1135.148682,119.845535 1135.023682,120.012833 1135.023682,120.012817 
z"/>
<path fill="#BBD65C" opacity="1.000000" stroke="none" 
	d="
M84.054962,47.367348 
	C87.658760,45.371986 91.420502,43.683338 95.571388,41.989166 
	C94.835373,45.335186 93.710197,48.686729 92.317894,52.833992 
	C89.089714,50.778816 86.651314,49.226440 84.054962,47.367348 
z"/>
<path fill="#76BD4F" opacity="1.000000" stroke="none" 
	d="
M1134.270508,126.975662 
	C1134.338745,124.842888 1134.406860,122.710106 1134.749268,120.295074 
	C1135.023682,120.012833 1135.148682,119.845535 1135.156250,120.283127 
	C1135.468506,121.409531 1135.819214,122.713066 1136.071045,122.694252 
	C1139.435059,122.442947 1142.797241,122.076706 1146.119507,121.504745 
	C1146.440430,121.449509 1146.492676,119.833305 1146.669678,118.941727 
	C1146.669678,118.941734 1146.855225,118.848534 1146.917725,118.931686 
	C1147.259888,121.392319 1147.539307,123.769798 1147.317383,126.547760 
	C1142.634277,126.957382 1138.452393,126.966522 1134.270508,126.975662 
z"/>
<path fill="#BBD65C" opacity="1.000000" stroke="none" 
	d="
M1149.712891,134.185760 
	C1152.645752,136.710648 1155.287476,139.437317 1157.981445,142.498352 
	C1155.296265,142.857834 1152.558960,142.882965 1149.365234,142.963425 
	C1148.908813,143.018753 1148.959961,142.981049 1148.955322,143.010788 
	C1145.468262,139.958008 1148.562378,137.233627 1149.712891,134.185760 
z"/>
<path fill="#88C352" opacity="1.000000" stroke="none" 
	d="
M1134.323364,127.302101 
	C1138.452393,126.966522 1142.634277,126.957382 1147.180908,126.951241 
	C1147.333618,128.056976 1147.121582,129.159714 1146.385132,130.610901 
	C1142.870117,131.329803 1139.879395,131.700256 1136.888794,132.070709 
	C1136.051270,130.589981 1135.213745,129.109268 1134.323364,127.302101 
z"/>
<path fill="#BBD65C" opacity="1.000000" stroke="none" 
	d="
M1136.965820,132.405197 
	C1139.879395,131.700256 1142.870117,131.329803 1146.276245,130.939453 
	C1145.710083,133.169098 1144.728394,135.418655 1143.397217,138.469040 
	C1141.028198,136.332977 1139.035522,134.536331 1136.965820,132.405197 
z"/>
<path fill="#FBC908" opacity="1.000000" stroke="none" 
	d="
M281.889465,116.076530 
	C282.249817,116.523552 282.446106,117.092133 282.642395,117.660721 
	C282.326874,117.428520 282.011414,117.196320 281.549683,116.706642 
	C281.403442,116.449165 281.725433,116.198090 281.889465,116.076530 
z"/>
<path fill="#E53C2E" opacity="1.000000" stroke="none" 
	d="
M59.239311,193.329651 
	C59.496189,193.507050 59.730194,193.948959 59.992523,194.648636 
	C59.752708,194.468994 59.484570,194.031570 59.239311,193.329651 
z"/>
<path fill="#FCFDFA" opacity="1.000000" stroke="none" 
	d="
M1224.368774,180.255402 
	C1228.984741,178.679688 1233.326050,179.478958 1235.057983,183.392258 
	C1236.564331,186.795609 1237.003540,191.555283 1235.804565,194.976318 
	C1234.934082,197.460449 1230.611206,200.168671 1227.844849,200.150482 
	C1225.087646,200.132339 1221.620239,197.374512 1219.781372,194.856186 
	C1217.146240,191.247559 1218.030396,186.912384 1220.656860,183.276382 
	C1221.494995,182.115997 1222.891113,181.358688 1224.368774,180.255402 
z"/>
<path fill="#FEFEFD" opacity="1.000000" stroke="none" 
	d="
M1123.187988,212.000732 
	C1111.636597,210.571396 1103.724243,203.627914 1101.398804,193.264633 
	C1099.293823,183.883499 1103.863647,173.457703 1112.314209,168.362259 
	C1121.129150,163.047134 1131.620850,163.874588 1139.771729,170.527771 
	C1147.087524,176.499329 1149.981689,187.152771 1146.786133,196.347916 
	C1143.440308,205.975754 1134.618896,211.938431 1123.187988,212.000732 
z"/>
<path fill="#FEF7F2" opacity="1.000000" stroke="none" 
	d="
M355.317657,278.601501 
	C356.812378,285.618164 358.196869,292.225647 359.674316,299.276917 
	C354.321106,299.276917 349.440399,299.276917 343.664886,299.276917 
	C346.243317,287.454803 348.789948,275.778290 351.336609,264.101807 
	C351.601624,264.047882 351.866608,263.993958 352.131622,263.940033 
	C353.156891,268.690796 354.182129,273.441559 355.317657,278.601501 
z"/>
<path fill="#FEF7F2" opacity="1.000000" stroke="none" 
	d="
M524.616211,267.824158 
	C524.942017,266.341095 525.159058,265.219879 525.376160,264.098694 
	C525.652771,264.050293 525.929382,264.001892 526.206055,263.953491 
	C528.689331,275.657562 531.172668,287.361633 533.729919,299.414124 
	C528.188477,299.414124 523.263367,299.414124 517.588745,299.414124 
	C519.946228,288.773743 522.226868,278.479919 524.616211,267.824158 
z"/>
<path fill="#40B14C" opacity="1.000000" stroke="none" 
	d="
M1146.255493,118.956650 
	C1146.492676,119.833305 1146.440430,121.449509 1146.119507,121.504745 
	C1142.797241,122.076706 1139.435059,122.442947 1136.071045,122.694252 
	C1135.819214,122.713066 1135.468506,121.409531 1135.249756,120.329597 
	C1138.837646,119.616173 1142.339478,119.293869 1146.255493,118.956650 
z"/>
</svg>