<?xml version="1.0" standalone="yes"?>
<svg xmlns="http://www.w3.org/2000/svg" width="1275" height="335">
<path style="fill:#ffffff; stroke:none;" d="M0 0L0 49C7.0836 45.2287 14.2153 41.4019 22 39.2715C48.2149 32.0976 68.9725 45.8655 89 61L89 62C82.756 66.9251 77.1463 72.4882 70 76.1473C41.1215 90.9341 20.6512 66.4619 0 50L0 335L1275 335L1275 199L1274 199C1262.33 255.874 1178.4 246.506 1178.4 189C1178.4 131.541 1261.88 122.613 1274 179L1275 179L1275 0L67 0L67 1C79.3571 6.58377 94.9472 15.9048 96.1322 31C96.6785 37.9602 93.8433 44.4425 92 51C70.3862 42.0354 60.942 22.2524 65 0L0 0z"/>
<path style="fill:#01a749; stroke:none;" d="M65 0L65 21L85 12L65 0z"/>
<path style="fill:#9bcf9d; stroke:none;" d="M63 8L63 16L64 16L63 8z"/>
<path style="fill:#3bb14b; stroke:none;" d="M66 26L89 17C84.1826 8.33069 65.893 17.6244 66 26z"/>
<path style="fill:#61b74d; stroke:none;" d="M89 15L66 26L72 34C77.4276 28.4253 95.4225 24.8571 89 15z"/>
<path style="fill:#9dcf95; stroke:none;" d="M64.3333 20.6667L64.6667 21.3333L64.3333 20.6667z"/>
<path style="fill:#7bbf4f; stroke:none;" d="M70 35L73 38C80.2938 33.181 96.5325 31.8948 94 21C85.9084 24.186 75.8289 28.4218 70 35z"/>
<path style="fill:#97c953; stroke:none;" d="M95 28C89.6488 30.2537 79.8689 31.3456 76.2522 36.1937C73.7047 39.6085 77.9184 43.2644 81.0469 44.1085C85.966 45.4358 91.5173 41.6313 96 40L95 28z"/>
<path style="fill:#d3e7af; stroke:none;" d="M96 30L96 34L97 34L96 30z"/>
<path style="fill:#85c573; stroke:none;" d="M30 37L30 38L44 38L30 37z"/>
<path style="fill:#79c37b; stroke:none;" d="M24 38L24 39L27 39L24 38z"/>
<path style="fill:#01a549; stroke:none;" d="M0 49C7.28194 58.1347 16.0828 67.3946 27 72L31 38C19.6515 39.3438 9.67923 42.9438 0 49z"/>
<path style="fill:#3bb14b; stroke:none;" d="M31 38L26 73L33 76L40 38L31 38z"/>
<path style="fill:#69b94d; stroke:none;" d="M40 38L33 77L47 79C44.709 67.9368 56.1774 38.8887 40 38z"/>
<path style="fill:#bfdda7; stroke:none;" d="M48.6667 38.3333L49.3333 38.6667L48.6667 38.3333z"/>
<path style="fill:#61b96d; stroke:none;" d="M20.6667 39.3333L21.3333 39.6667L20.6667 39.3333z"/>
<path style="fill:#97c953; stroke:none;" d="M49 39L45 81C51.8675 80.9989 61.6756 82.2183 67.0353 76.8996C70.6743 73.2883 70.1119 67.6801 70.1112 63C70.1091 46.9068 66.1384 41.3282 49 39z"/>
<path style="fill:#8dc991; stroke:none;" d="M17 40L18 41L17 40z"/>
<path style="fill:#bbd759; stroke:none;" d="M83 45L83 47L92 51L96 40L83 45z"/>
<path style="fill:#f18f2f; stroke:none;" d="M146 45L146 46L151 46L149 59L145 59L149 65L145 66L147 68L145 68L143 79L143 80L143 82L143 83L145 83L145 84L140 93L142 99C135.972 99.7511 136.695 109.036 139 113L136 115L139 116L135 120L135 121L135 124L135 125L134 134L135 148L132 149L128 154L129 156L126 156L126 157L128 158L128 159L124 171L126 188L125 194L121 195L123 202L120 210L123 211L123 215L119 216L119 217L117 230L119 230L120 238L116 240L118 244L115 244L114 245L113 247C112.515 255.46 106.954 266.649 108.449 274.708C110.338 284.891 130.364 295.966 139 300L137 295L141 286L143 286L142 269L147 265L146 262C148.911 258.309 149.355 254.115 147 250L147 249L151 248L155.006 219.999L157 202C143.766 166.072 137.915 129.254 173 103L171 101L171 100L172 84L175 84L178 76L185 47L146 45z"/>
<path style="fill:#fbcd99; stroke:none;" d="M172.667 45.3333L173.333 45.6667L172.667 45.3333z"/>
<path style="fill:#eb6f2f; stroke:none;" d="M100 61L100 67L102 67L92 108L82 169C79.1812 169 79.3664 170.421 80 173C74.7404 180.818 69.7548 200.972 72 210C63.6426 214.404 69.0901 223.822 72.4521 230C80.8544 245.44 92.2194 266.194 108 275L113 247L114 245L115 244L118 244L116 240L120 238L119 230L117 230C119.474 226.288 123.249 217.85 119 217L119 216L123 215L120 210L123 202L121 195L125 194L126 188L124 171C127.763 169.13 129.382 158.879 126 157L126 156L128 154L132 149L135 148L134 134C136.563 130.96 136.526 128.597 135 125L135 124L135 121L135 120L139 116L136 115L139 113C136.824 108.647 137.271 97.8178 142 99L140 93L145 84L145 83L143 83L143 82L143 80L143 79C145.518 75.3167 146.565 72.2881 145 68L147 68L147 67L145 66L149 65L145 59L149 59L151 46C132.618 46.078 116.263 53.0296 100 61z"/>
<path style="fill:#f9c98b; stroke:none;" d="M178.667 46.3333L179.333 46.6667L178.667 46.3333z"/>
<path style="fill:#8bcb99; stroke:none;" d="M2 47L3 48L2 47z"/>
<path style="fill:#b3d359; stroke:none;" d="M71 48L69 77L89 62L89 61L71 48z"/>
<path style="fill:#f7ad15; stroke:none;" d="M178 76L175 84L172 84L171 101L197.999 91.213L208.881 86.2811L215 58C209.005 55.4685 190.302 44.4264 184.527 50.2357C181.019 53.7635 181.562 60.5334 180.03 64.9823C178.614 69.0947 177.361 71.5215 178 76z"/>
<path style="fill:#fbc501; stroke:none;" d="M214 59L209 89C239.113 89.0046 256.818 102.088 282 116C267.79 93.8887 240.045 66.2847 214 59z"/>
<path style="fill:#e74d2d; stroke:none;" d="M75 81L75 82C81.5114 112.631 59.1362 143.896 65 175L60 191L66 216L67 216L72 210C69.9556 200.397 75.3814 181.852 80 173C79.4922 169.953 79.4132 168.353 82 169L92 108L96.2542 88.4509L102 67L100 67L100 62C90.0476 66.3924 82.6162 73.4008 75 81z"/>
<path style="fill:#9dcf93; stroke:none;" d="M24 71L25 72L24 71z"/>
<path style="fill:#e5372d; stroke:none;" d="M74 82C50.9648 116.493 47.8471 159.703 60 199L61 199C61.7992 195.663 64.4216 191.952 60 191L65 175C62.1055 143.44 78.7079 113.416 76 82L74 82z"/>
<path style="fill:#fbd997; stroke:none;" d="M205 89L205 90L209 90L205 89z"/>
<path style="fill:#fddb95; stroke:none;" d="M222 89L222 90L225 90L222 89z"/>
<path style="fill:#fdd167; stroke:none;" d="M230.667 90.3333L231.333 90.6667L230.667 90.3333z"/>
<path style="fill:#fbd597; stroke:none;" d="M195.667 91.3333L196.333 91.6667L195.667 91.3333z"/>
<path style="fill:#a1cf6f; stroke:none;" d="M226 103L226 104L233 104L226 103z"/>
<path style="fill:#77bd41; stroke:none;" d="M301 155L226 155L226 187L254 187C250.122 191.763 245.93 195.858 240 197.915C212.925 207.308 196.07 169.659 214.217 151.184C221.644 143.621 231.743 140.479 242 143.492C247.639 145.149 254.019 150.796 260 147.873C265.658 145.107 286.725 128.591 281.97 121.649C273.166 108.796 252.332 104.502 238 103.741C190.099 101.197 152.425 146.057 167.799 193C182.833 238.902 243.538 254.537 278.901 221.663C297.571 204.305 300.977 179.171 301 155z"/>
<path style="fill:#a1cf71; stroke:none;" d="M236 103L236 104L243 104L236 103z"/>
<path style="fill:#bddb97; stroke:none;" d="M247.667 104.333L248.333 104.667L247.667 104.333z"/>
<path style="fill:#01a549; stroke:none;" d="M1139 108L1135 118L1145 117L1139 108z"/>
<path style="fill:#93cd9b; stroke:none;" d="M1175.67 111.333L1176.33 111.667L1175.67 111.333z"/>
<path style="fill:#01ab49; stroke:none;" d="M1166 114L1177 128L1181 111L1166 114z"/>
<path style="fill:#79c38b; stroke:none;" d="M1181.33 111.667L1181.67 112.333L1181.33 111.667z"/>
<path style="fill:#59b76d; stroke:none;" d="M1170.67 112.333L1171.33 112.667L1170.67 112.333z"/>
<path style="fill:#8bc987; stroke:none;" d="M1167 113L1168 114L1167 113z"/>
<path style="fill:#81c587; stroke:none;" d="M1135 114L1136 115L1135 114z"/>
<path style="fill:#3fb14b; stroke:none;" d="M1165 114L1163 115L1174 131L1176 131L1165 114z"/>
<path style="fill:#4db34b; stroke:none;" d="M1145 115C1141.42 117.151 1138.89 117.647 1135 116L1134 116L1133 123L1147 122L1145 115z"/>
<path style="fill:#ffe175; stroke:none;" d="M281 116L284 119L281 116z"/>
<path style="fill:#69b94d; stroke:none;" d="M1165 140C1174.74 135.439 1173.98 120.833 1162.4 118.427C1153.91 116.662 1154.72 127.858 1158.11 131.9C1160.39 134.624 1162.79 137.211 1165 140z"/>
<path style="fill:#95cd9b; stroke:none;" d="M1180 117L1181 118L1180 117z"/>
<path style="fill:#8dc551; stroke:none;" d="M1133 123C1134.2 129.654 1137.12 133.666 1143 137L1147 122L1133 123z"/>
<path style="fill:#9bcb55; stroke:none;" d="M1152 125C1152.33 133.239 1157.25 140.963 1166 141L1152 125z"/>
<path style="fill:#8dc987; stroke:none;" d="M1177 126L1178 127L1177 126z"/>
<path style="fill:#b9d559; stroke:none;" d="M1150 129L1146 141L1161 142L1161 141L1152 129L1150 129z"/>
<path style="fill:#f1997b; stroke:none;" d="M54.3333 130.667L54.6667 131.333L54.3333 130.667z"/>
<path style="fill:#77bd41; stroke:none;" d="M1115 137.562C1089.06 141.404 1068.66 169.11 1073.81 195C1076.47 208.37 1086.12 219.425 1087.7 233C1088.52 240.032 1087.11 246.715 1083.94 253C1081.9 257.049 1077.75 262.71 1080.67 267.319C1084.66 273.6 1099.8 271.223 1106 270.514C1143.89 266.178 1169.65 233.682 1173.61 197C1177.3 162.796 1150.63 132.286 1115 137.562z"/>
<path style="fill:#a1cd6f; stroke:none;" d="M1127 137L1127 138L1131 138L1127 137z"/>
<path style="fill:#eb7153; stroke:none;" d="M53 138L53 144L54 144L53 138z"/>
<path style="fill:#bbdb95; stroke:none;" d="M1134.67 138.333L1135.33 138.667L1134.67 138.333z"/>
<path style="fill:#c3dfa3; stroke:none;" d="M423 139L423 140L434 140L423 139M523 139L523 140L528 140L523 139z"/>
<path style="fill:#77bd41; stroke:none;" d="M577 214L554 195C550.763 198.502 547.322 201.388 542.997 203.486C539.895 204.992 536.485 206.178 533 206.177C507.22 206.169 511.069 161.305 537 172L537 173C532.718 175.293 525.074 177.906 522.961 182.634C520.718 187.65 527.463 199.707 533.215 199.514C538.303 199.344 543.661 195.149 548 192.825C557.946 187.5 567.713 181.641 578 177C565.173 128.557 486.723 126.492 480.339 180C478.028 199.369 483.583 218.331 500.033 230.019C521.508 245.277 564.897 239.505 577 214z"/>
<path style="fill:#c5dfa1; stroke:none;" d="M530 139L530 140L534 140L530 139z"/>
<path style="fill:#c3dfa3; stroke:none;" d="M622 139L622 140L632 140L622 139z"/>
<path style="fill:#c5dfa3; stroke:none;" d="M772 139L772 140L777 140L772 139z"/>
<path style="fill:#c5dfa1; stroke:none;" d="M823 139L823 140L827 140L823 139z"/>
<path style="fill:#a1cd6f; stroke:none;" d="M919 139L919 140L925 140L919 139z"/>
<path style="fill:#c3dfa1; stroke:none;" d="M925 139L925 140L929 140L925 139z"/>
<path style="fill:#a1cd6f; stroke:none;" d="M1020 139L1020 140L1029 140L1020 139z"/>
<path style="fill:#c3dfa3; stroke:none;" d="M1222 139L1222 140L1226 140L1222 139z"/>
<path style="fill:#77bd41; stroke:none;" d="M1226 139.73C1178.17 140.485 1161.9 205.543 1201 231.155C1210.45 237.342 1220 238.229 1231 237.965C1291.94 236.506 1286.54 138.775 1226 139.73z"/>
<path style="fill:#c3dfa3; stroke:none;" d="M1228 139L1228 140L1232 140L1228 139z"/>
<path style="fill:#b3d789; stroke:none;" d="M416 140L416 141L419 141L416 140z"/>
<path style="fill:#77bd41; stroke:none;" d="M477 216L477 215C471.943 210.061 462.464 197.591 455 197.284C442.194 196.756 434.104 213.947 420.419 201.353C407.321 189.3 419.83 159.258 436 174L420 182L429 202L477 177C467.337 133.173 403.781 126.895 383.973 166C370.468 192.662 384.163 230.758 415 237.176C439.037 242.178 459.97 232.328 477 216M583 237L620 237C620 221.337 619.809 205.661 620.012 190C620.071 185.446 620.527 176.635 627 176.635C633.472 176.635 633.929 185.446 633.988 190C634.191 205.661 634 221.337 634 237L672 237C672 213.811 677.821 180.501 665.017 160.002C646.659 130.611 599.717 134.211 586.049 166C577.572 185.716 583 215.816 583 237z"/>
<path style="fill:#c3dfa3; stroke:none;" d="M636.667 140.333L637.333 140.667L636.667 140.333z"/>
<path style="fill:#77bd41; stroke:none;" d="M731 237L768 237C768 221.335 767.897 205.665 768.006 190C768.037 185.539 768.053 175.729 774.934 176.363C781.148 176.936 780.963 185.539 780.994 190C781.103 205.665 781 221.335 781 237L818 237C818 221.335 817.897 205.665 818.006 190C818.037 185.498 818.046 175.911 824.934 176.524C831.503 177.108 830.982 186.377 830.998 191C831.051 206.333 831 221.667 831 237L868 237C868 214.17 874.702 178.798 861.448 159.004C851.652 144.376 833.242 137.06 816 140.734C810.538 141.898 805.526 146.422 800 146.69C795.134 146.925 790.509 142.965 786 141.524C779.242 139.364 770.916 139.387 764 140.824C721.016 149.756 731 204.825 731 237z"/>
<path style="fill:#cde3af; stroke:none;" d="M833.667 140.333L834.333 140.667L833.667 140.333z"/>
<path style="fill:#77bd41; stroke:none;" d="M929 237L929 198C917.211 200.993 907.073 185.915 920.09 179.814C927.088 176.534 932.517 183.875 933.572 190.002C936.141 204.923 934 221.867 934 237L972 237C972 218.685 972.299 200.259 970.783 182C970.132 174.156 967.47 166.579 963.155 160.002C959.276 154.089 954.143 149.166 948 145.646C941.565 141.958 934.376 140.207 927 140.035C912.246 139.69 899.025 143.182 888.579 154.31C867.827 176.415 871.366 217.271 899 232.08C908.583 237.216 918.447 237 929 237M980 237L1017 237C1017 221.343 1016.7 205.654 1017.02 190C1017.12 185.286 1017.81 177.066 1024.06 176.524C1030.91 175.93 1031.88 185.243 1031.98 190C1032.3 205.654 1032 221.343 1032 237L1069 237C1069 215.546 1074.21 186.023 1065.61 166C1051.66 133.51 1004.02 131.107 986.058 161C973.905 181.224 980 214.244 980 237z"/>
<path style="fill:#bbdb95; stroke:none;" d="M1033.67 140.333L1034.33 140.667L1033.67 140.333z"/>
<path style="fill:#a1cd6f; stroke:none;" d="M308 141L308 142L346 142L346 155L347 155L347 141L308 141z"/>
<path style="fill:#a1cf71; stroke:none;" d="M369 141L369 142L378 142L369 141z"/>
<path style="fill:#c3dfa3; stroke:none;" d="M228.667 142.333L229.333 142.667L228.667 142.333z"/>
<path style="fill:#77bd41; stroke:none;" d="M308 142L308 237L348 237C348 211.252 342.739 176.464 378 175L378 142C365.068 142.005 354.597 143.325 347 155L346 155L346 142L308 142z"/>
<path style="fill:#f9cb97; stroke:none;" d="M145 150L145 153L146 153L145 150z"/>
<path style="fill:#f3a387; stroke:none;" d="M53 163L53 166L54 166L53 163z"/>
<path style="fill:#c3dfa1; stroke:none;" d="M1117.67 164.333L1118.33 164.667L1117.67 164.333z"/>
<path style="fill:#ffffff; stroke:none;" d="M1119 164.683C1089.3 170.415 1098.51 216.116 1128 210.321C1157.44 204.537 1148.45 159.001 1119 164.683z"/>
<path style="fill:#a1cf6f; stroke:none;" d="M164 165L164 174L165 174L164 165z"/>
<path style="fill:#a1cd6f; stroke:none;" d="M300 168L300 174L301 174L300 168z"/>
<path style="fill:#f7bf7d; stroke:none;" d="M146.333 170.667L146.667 171.333L146.333 170.667z"/>
<path style="fill:#c3dfa3; stroke:none;" d="M164 174L164 178L165 178L164 174z"/>
<path style="fill:#c5dfa3; stroke:none;" d="M370 175L370 176L375 176L370 175z"/>
<path style="fill:#9fcd6f; stroke:none;" d="M731 175L731 179L732 179L731 175z"/>
<path style="fill:#ef8d6d; stroke:none;" d="M55.3333 178.667L55.6667 179.333L55.3333 178.667z"/>
<path style="fill:#c3dfa3; stroke:none;" d="M1225 178L1225 179L1228 179L1225 178z"/>
<path style="fill:#a3cf6f; stroke:none;" d="M671 179L671 184L672 184L671 179z"/>
<path style="fill:#ffffff; stroke:none;" d="M1223.26 180.295C1213.72 184.625 1219.18 202.163 1229.85 197.775C1240.53 193.379 1234.58 175.154 1223.26 180.295z"/>
<path style="fill:#b3d789; stroke:none;" d="M1274 179L1274 182L1275 182L1274 179z"/>
<path style="fill:#c5dfa3; stroke:none;" d="M582 181L582 185L583 185L582 181M868 181L868 185L869 185L868 181z"/>
<path style="fill:#a1cd6f; stroke:none;" d="M1017 181L1017 237L1018 237C1018 219.453 1021.33 198.024 1017 181M1031 181L1031 237L1032 237C1032 219.453 1035.33 198.024 1031 181z"/>
<path style="fill:#cbe3af; stroke:none;" d="M1146 181L1146 184L1147 184L1146 181z"/>
<path style="fill:#b3d789; stroke:none;" d="M165 182L165 185L166 185L165 182z"/>
<path style="fill:#a1cd6f; stroke:none;" d="M875 182L875 186L876 186L875 182M479 183L479 195L480 195L479 183z"/>
<path style="fill:#a1cf6f; stroke:none;" d="M514 184L514 191L515 191L514 184z"/>
<path style="fill:#a1cd6f; stroke:none;" d="M582 185L582 237L583 237C583 220.659 586.036 200.86 582 185M868 185L868 237L869 237C869 220.659 872.036 200.86 868 185z"/>
<path style="fill:#c3dfa3; stroke:none;" d="M913.333 185.667L913.667 186.333L913.333 185.667M1178 185L1178 193L1179 193L1178 185M378 186L378 192L379 192L378 186z"/>
<path style="fill:#a1cf6f; stroke:none;" d="M971 186L971 199L972 199L971 186z"/>
<path style="fill:#c3dfa3; stroke:none;" d="M1217 186L1217 191L1218 191L1217 186z"/>
<path style="fill:#a1cd6f; stroke:none;" d="M1236 186L1236 191L1237 191L1236 186M226 187L226 188L254 188L226 187z"/>
<path style="fill:#c3dfa1; stroke:none;" d="M933.333 187.667L933.667 188.333L933.333 187.667z"/>
<path style="fill:#c3dfa3; stroke:none;" d="M1069 188L1069 237L1070 237L1069 188z"/>
<path style="fill:#cbe3af; stroke:none;" d="M1146.33 191.667L1146.67 192.333L1146.33 191.667z"/>
<path style="fill:#c3dfa3; stroke:none;" d="M875 193L875 198L876 198L875 193M348 196L348 200L349 200L348 196z"/>
<path style="fill:#a1cd6f; stroke:none;" d="M929 198L929 237L930 237L929 198z"/>
<path style="fill:#b1d587; stroke:none;" d="M1173 198L1173 201L1174 201L1173 198z"/>
<path style="fill:#c3dfa3; stroke:none;" d="M230 199L230 200L235 200L230 199z"/>
<path style="fill:#bbdb97; stroke:none;" d="M921 199L921 200L926 200L921 199z"/>
<path style="fill:#c5dfa3; stroke:none;" d="M1225 199L1225 200L1228 200L1225 199z"/>
<path style="fill:#b3d789; stroke:none;" d="M530.667 201.333L531.333 201.667L530.667 201.333z"/>
<path style="fill:#f7ad15; stroke:none;" d="M155 202L151 248L147 249L147 250C148.99 254.327 148.402 257.977 146 262L147 265L142 269L144 271L143 286L141 286L137 295C142.609 306.479 159.181 312.979 171 316L179.925 264L182.233 242.548L172.084 227L157 202L155 202z"/>
<path style="fill:#bddb95; stroke:none;" d="M1172.33 204.667L1172.67 205.333L1172.33 204.667z"/>
<path style="fill:#c5dfa3; stroke:none;" d="M430 206L430 207L434 207L430 206z"/>
<path style="fill:#a1cd6f; stroke:none;" d="M531 206L531 207L536 207L531 206z"/>
<path style="fill:#b1d587; stroke:none;" d="M1087 229L1087 232L1088 232L1087 229z"/>
<path style="fill:#bbdb95; stroke:none;" d="M439.667 237.333L440.333 237.667L439.667 237.333z"/>
<path style="fill:#c3dfa3; stroke:none;" d="M540.667 237.333L541.333 237.667L540.667 237.333z"/>
<path style="fill:#a1cd6f; stroke:none;" d="M917 237L917 238L929 238L917 237M422 238L422 239L435 239L422 238M523 238L523 239L536 239L523 238z"/>
<path style="fill:#a1cd6d; stroke:none;" d="M1221 238L1221 239L1233 239L1221 238z"/>
<path style="fill:#c5dfa3; stroke:none;" d="M230 239L230 240L236 240L230 239z"/>
<path style="fill:#f9b701; stroke:none;" d="M183 242L171 317L207 327L206 323L205 323L203 325L206 320L201 319L201 318L204 318L204 308L205 303L210 293L206 293L208 291L207 289L209 281L212 278L208 277L208 276C210.727 274.152 211.396 273.053 210 270L213 270C211.067 259.342 191.343 248.454 183 242z"/>
<path style="fill:#b3d789; stroke:none;" d="M1087.33 243.667L1087.67 244.333L1087.33 243.667z"/>
<path style="fill:#eb6115; stroke:none;" d="M317 322L338 322L342 302C349.953 307.324 358.892 313.076 363 322L384 322L373.875 278L367.98 261.627L350 260L332.569 262.175L327.361 280L317 322z"/>
<path style="fill:#f7bb8d; stroke:none;" d="M404 260L404 261L409 261L404 260z"/>
<path style="fill:#eb6115; stroke:none;" d="M428 321C421.323 315.548 412.834 310.492 410 302L391 302C391.056 322.669 408.731 323.116 426 321.726C435.398 320.97 446.457 320.168 448.485 308.988C448.956 306.394 449.057 303.629 448.834 301.003C447.303 283.001 424.688 290.851 414.62 282.604C409.189 278.155 411 268.216 411 262L429 280L447 280C446.945 259.63 430.075 259.21 413 260.136C404.423 260.602 393.753 260.78 391.57 271.015C391.019 273.597 390.962 276.369 391.1 278.998C392.108 298.207 415.134 288.818 425.096 298.248C430.186 303.066 428 314.642 428 321z"/>
<path style="fill:#f7bb8d; stroke:none;" d="M428 260L428 261L433 261L428 260z"/>
<path style="fill:#ef7931; stroke:none;" d="M459 260L459 322L460 322C460 302.645 463.776 278.768 459 260z"/>
<path style="fill:#eb6115; stroke:none;" d="M460 260L460 322L480 322L480 260L460 260M491 322L512 322L516 302C523.953 307.324 532.892 313.076 537 322L558 322L547.875 278L541.98 261.627L524 260L506.569 262.175L501.361 280L491 322z"/>
<path style="fill:#ef7931; stroke:none;" d="M566 260L566 322L567 322C567 302.645 570.776 278.768 566 260z"/>
<path style="fill:#eb6115; stroke:none;" d="M567 260L567 322L581 322C581 304.203 580.728 288.272 576 271L577 271L597.13 306L608.309 320.825L632 322L632 260L618 260L618 302L599.721 273L590.378 261.175L567 260z"/>
<path style="fill:#f7bb8d; stroke:none;" d="M632 260L632 322L633 322C633 302.645 636.776 278.768 632 260M685 260L685 261L689 261L685 260z"/>
<path style="fill:#eb6115; stroke:none;" d="M730 301L710 301C709.97 304.782 710.316 309.294 707.825 312.453C703.87 317.467 695.884 315.521 693.818 309.797C689.087 296.694 693 275.909 693 262C700.413 266.265 708.039 271.213 710 280L730 280C729.994 275.09 730.793 268.713 727.096 264.848C722.921 260.483 714.621 260.449 709 260.137C694.404 259.328 672.311 257.503 672.015 277C671.868 286.682 667.86 309.926 675.62 316.961C684.573 325.077 718.696 325.642 726.928 316.265C730.533 312.159 729.987 306.086 730 301z"/>
<path style="fill:#f7bb8d; stroke:none;" d="M713 260L713 261L718 261L713 260z"/>
<path style="fill:#eb6115; stroke:none;" d="M739 260C739 273.333 738.938 286.667 739.005 300C739.036 306.262 738.95 313.532 744.392 317.771C752.023 323.716 765.904 322 775 322C770.947 316.713 763.984 313.038 761.269 306.859C755.905 294.653 760 273.25 760 260L739 260M777 260L777 322L794.096 316.251L797 300L797 260L777 260z"/>
<path style="fill:#f18f4f; stroke:none;" d="M797 260L797 311L798 311L797 260z"/>
<path style="fill:#ef7931; stroke:none;" d="M809 260L809 322L810 322C810 302.645 813.776 278.768 809 260z"/>
<path style="fill:#eb6115; stroke:none;" d="M810 260L810 322L830 322L830 260L810 260z"/>
<path style="fill:#f7bb8d; stroke:none;" d="M852 260L852 261L857 261L852 260z"/>
<path style="fill:#eb6115; stroke:none;" d="M876 321C869.323 315.548 860.834 310.492 858 302L839 302C839.055 322.669 856.731 323.116 874 321.726C883.398 320.97 894.457 320.168 896.485 308.988C896.956 306.394 897.057 303.629 896.834 301.003C895.303 283.001 872.688 290.851 862.62 282.604C857.189 278.155 859 268.216 859 262L877 280L895 280C894.945 259.63 878.075 259.21 861 260.136C852.423 260.602 841.753 260.78 839.57 271.015C839.019 273.597 838.962 276.369 839.1 278.998C840.108 298.207 863.134 288.818 873.096 298.248C878.186 303.066 876 314.642 876 321z"/>
<path style="fill:#f7bb8d; stroke:none;" d="M876 260L876 261L881 261L876 260z"/>
<path style="fill:#ef7931; stroke:none;" d="M907 260L907 322L908 322C908 302.645 911.776 278.768 907 260z"/>
<path style="fill:#eb6115; stroke:none;" d="M908 260L908 322L928 322L928 260L908 260z"/>
<path style="fill:#ef7931; stroke:none;" d="M939 260L939 322L940 322C940 302.645 943.776 278.768 939 260z"/>
<path style="fill:#eb6115; stroke:none;" d="M940 260L940 322L954 322C954 304.203 953.728 288.272 949 271L950 271L970.13 306L981.309 320.825L1005 322L1005 260L991 260L991 302L972.721 273L963.378 261.175L940 260z"/>
<path style="fill:#f7bb8d; stroke:none;" d="M1005 260L1005 322L1006 322C1006 302.645 1009.78 278.768 1005 260z"/>
<path style="fill:#ef7931; stroke:none;" d="M1013 260L1013 322L1014 322C1014 302.645 1017.78 278.768 1013 260z"/>
<path style="fill:#eb6115; stroke:none;" d="M1014 260L1014 322L1058 322L1058 313L1034 313L1034 294L1055 294L1055 286L1034 286C1032.23 278.171 1025.74 274.067 1020 269L1056 269L1056 260L1014 260z"/>
<path style="fill:#f18f4f; stroke:none;" d="M1056 260L1056 269L1057 269L1056 260z"/>
<path style="fill:#f7bb8f; stroke:none;" d="M436.667 261.333L437.333 261.667L436.667 261.333z"/>
<path style="fill:#f7b98d; stroke:none;" d="M721.667 261.333L722.333 261.667L721.667 261.333z"/>
<path style="fill:#f7bb8d; stroke:none;" d="M884.667 261.333L885.333 261.667L884.667 261.333M350 262L351 266L352 266L350 262M524 262L525 266L526 266L524 262z"/>
<path style="fill:#fdcd01; stroke:none;" d="M213 265L213 270L210 270L208 276L208 277L212 278L209 281L207 289L208 291L206 293L210 293L205 303L204 308C204.459 311.487 205.419 317.43 201 318L201 319L206 320L203 325L205 323L206 323C210.359 330.256 221.373 330.108 229 330.727C247.609 332.236 283.476 337.47 297.469 321.763C308.22 309.696 299.166 286.755 294 274C263.702 280.75 241.406 277.589 213 265z"/>
<path style="fill:#ffffff; stroke:none;" d="M350 265L343 298L358 298C356.78 287.641 355.303 274.074 350 265M524 265L517 298L532 298C530.779 287.641 529.303 274.074 524 265z"/>
<path style="fill:#f7bb8d; stroke:none;" d="M349.333 266.667L349.667 267.333L349.333 266.667M523.333 266.667L523.667 267.333L523.333 266.667M352.333 268.667L352.667 269.333L352.333 268.667z"/>
<path style="fill:#f39b5f; stroke:none;" d="M391.333 268.667L391.667 269.333L391.333 268.667z"/>
<path style="fill:#f7bb8d; stroke:none;" d="M526.333 268.667L526.667 269.333L526.333 268.667z"/>
<path style="fill:#f39b5f; stroke:none;" d="M839.333 268.667L839.667 269.333L839.333 268.667z"/>
<path style="fill:#b3d789; stroke:none;" d="M1106 270L1106 271L1109 271L1106 270z"/>
<path style="fill:#fbd1af; stroke:none;" d="M348.333 271.667L348.667 272.333L348.333 271.667z"/>
<path style="fill:#f9cfad; stroke:none;" d="M522.333 271.667L522.667 272.333L522.333 271.667z"/>
<path style="fill:#f39b5d; stroke:none;" d="M576 271L576 273L578 273L576 271M949 271L949 273L951 273L949 271z"/>
<path style="fill:#c3dfa3; stroke:none;" d="M1091 271L1091 272L1099 272L1091 271z"/>
<path style="fill:#f9cfad; stroke:none;" d="M353 273L353 276L354 276L353 273z"/>
<path style="fill:#fbcfad; stroke:none;" d="M527 273L527 276L528 276L527 273z"/>
<path style="fill:#f7bb8d; stroke:none;" d="M671 273L671 311L672 311L671 273z"/>
<path style="fill:#ffe9a1; stroke:none;" d="M235.667 274.333L236.333 274.667L235.667 274.333z"/>
<path style="fill:#f39b5d; stroke:none;" d="M328.333 274.667L328.667 275.333L328.333 274.667M502.333 274.667L502.667 275.333L502.333 274.667z"/>
<path style="fill:#f7bb8d; stroke:none;" d="M347.333 275.667L347.667 276.333L347.333 275.667M521.333 275.667L521.667 276.333L521.333 275.667z"/>
<path style="fill:#f3995d; stroke:none;" d="M577.333 275.667L577.667 276.333L577.333 275.667z"/>
<path style="fill:#f39b5f; stroke:none;" d="M950.333 275.667L950.667 276.333L950.333 275.667z"/>
<path style="fill:#ffe791; stroke:none;" d="M243.667 276.333L244.333 276.667L243.667 276.333z"/>
<path style="fill:#f7b98d; stroke:none;" d="M428 276L428 280L429 280L428 276M876 276L876 280L877 280L876 276z"/>
<path style="fill:#ffe173; stroke:none;" d="M248 277L248 278L251 278L248 277z"/>
<path style="fill:#ffe77d; stroke:none;" d="M278 277L278 278L281 278L278 277z"/>
<path style="fill:#f7bb8d; stroke:none;" d="M354 277L354 280L355 280L354 277M528 277L528 280L529 280L528 277z"/>
<path style="fill:#ffe997; stroke:none;" d="M256 278L256 279L274 279L256 278z"/>
<path style="fill:#f39b5f; stroke:none;" d="M327.333 278.667L327.667 279.333L327.333 278.667z"/>
<path style="fill:#f39b5d; stroke:none;" d="M501.333 278.667L501.667 279.333L501.333 278.667z"/>
<path style="fill:#f39b5f; stroke:none;" d="M578.333 279.667L578.667 280.333L578.333 279.667z"/>
<path style="fill:#f39b5d; stroke:none;" d="M951.333 279.667L951.667 280.333L951.333 279.667z"/>
<path style="fill:#fbcfad; stroke:none;" d="M346.333 280.667L346.667 281.333L346.333 280.667z"/>
<path style="fill:#f9cfad; stroke:none;" d="M520.333 280.667L520.667 281.333L520.333 280.667z"/>
<path style="fill:#f39b5f; stroke:none;" d="M326.333 282.667L326.667 283.333L326.333 282.667z"/>
<path style="fill:#f7bb8d; stroke:none;" d="M355.333 282.667L355.667 283.333L355.333 282.667z"/>
<path style="fill:#f39b5f; stroke:none;" d="M500.333 282.667L500.667 283.333L500.333 282.667z"/>
<path style="fill:#f7bb8d; stroke:none;" d="M529.333 282.667L529.667 283.333L529.333 282.667z"/>
<path style="fill:#f39b5d; stroke:none;" d="M579.333 283.667L579.667 284.333L579.333 283.667M952.333 283.667L952.667 284.333L952.333 283.667z"/>
<path style="fill:#f7bb8d; stroke:none;" d="M345.333 284.667L345.667 285.333L345.333 284.667M519.333 284.667L519.667 285.333L519.333 284.667M420 285L420 286L423 286L420 285z"/>
<path style="fill:#f7b98d; stroke:none;" d="M868 285L868 286L871 286L868 285z"/>
<path style="fill:#f39b5d; stroke:none;" d="M325.333 286.667L325.667 287.333L325.333 286.667z"/>
<path style="fill:#f7bb8d; stroke:none;" d="M426 286L426 287L429 287L426 286z"/>
<path style="fill:#f39b5f; stroke:none;" d="M499.333 286.667L499.667 287.333L499.333 286.667z"/>
<path style="fill:#f7bb8d; stroke:none;" d="M874 286L874 287L877 287L874 286M356.333 287.667L356.667 288.333L356.333 287.667M432 287L432 288L435 288L432 287M530.333 287.667L530.667 288.333L530.333 287.667z"/>
<path style="fill:#f39b5f; stroke:none;" d="M580.333 287.667L580.667 288.333L580.333 287.667z"/>
<path style="fill:#f7bb8d; stroke:none;" d="M880 287L880 288L883 288L880 287z"/>
<path style="fill:#f3995d; stroke:none;" d="M953.333 287.667L953.667 288.333L953.333 287.667z"/>
<path style="fill:#f7bb8d; stroke:none;" d="M437.667 288.333L438.333 288.667L437.667 288.333M885.667 288.333L886.333 288.667L885.667 288.333z"/>
<path style="fill:#f9cfad; stroke:none;" d="M344.333 289.667L344.667 290.333L344.333 289.667M518.333 289.667L518.667 290.333L518.333 289.667z"/>
<path style="fill:#f39d5f; stroke:none;" d="M324.333 290.667L324.667 291.333L324.333 290.667z"/>
<path style="fill:#f39b5f; stroke:none;" d="M498.333 290.667L498.667 291.333L498.333 290.667z"/>
<path style="fill:#fbcfaf; stroke:none;" d="M357.333 292.667L357.667 293.333L357.333 292.667z"/>
<path style="fill:#f7bb8d; stroke:none;" d="M402.667 292.333L403.333 292.667L402.667 292.333z"/>
<path style="fill:#fbd1af; stroke:none;" d="M531.333 292.667L531.667 293.333L531.333 292.667z"/>
<path style="fill:#f7bb8d; stroke:none;" d="M850.667 292.333L851.333 292.667L850.667 292.333M343.333 293.667L343.667 294.333L343.333 293.667M408 293L408 294L411 294L408 293M517.333 293.667L517.667 294.333L517.333 293.667M856 293L856 294L859 294L856 293z"/>
<path style="fill:#f39b5f; stroke:none;" d="M323.333 294.667L323.667 295.333L323.333 294.667z"/>
<path style="fill:#f7bb8d; stroke:none;" d="M415 294L415 295L418 295L415 294z"/>
<path style="fill:#f39b5d; stroke:none;" d="M497.333 294.667L497.667 295.333L497.333 294.667z"/>
<path style="fill:#f7bb8d; stroke:none;" d="M863 294L863 295L866 295L863 294M358 296L343 298L343 299C346.087 299 359.78 300.722 358 296M532 296L517 298L517 299C520.087 299 533.78 300.722 532 296z"/>
<path style="fill:#fff16b; stroke:none;" d="M301.333 298.667L301.667 299.333L301.333 298.667z"/>
<path style="fill:#f39b5d; stroke:none;" d="M322.333 298.667L322.667 299.333L322.333 298.667M496.333 298.667L496.667 299.333L496.333 298.667M379.333 301.667L379.667 302.333L379.333 301.667z"/>
<path style="fill:#f3995d; stroke:none;" d="M553.333 301.667L553.667 302.333L553.333 301.667z"/>
<path style="fill:#f39b5d; stroke:none;" d="M321.333 302.667L321.667 303.333L321.333 302.667M495.333 302.667L495.667 303.333L495.333 302.667z"/>
<path style="fill:#fff7a7; stroke:none;" d="M302 304L302 312L303 312L302 304z"/>
<path style="fill:#f7bb8d; stroke:none;" d="M341.333 304.667L341.667 305.333L341.333 304.667M515.333 304.667L515.667 305.333L515.333 304.667z"/>
<path style="fill:#f39b5f; stroke:none;" d="M380.333 305.667L380.667 306.333L380.333 305.667M554.333 305.667L554.667 306.333L554.333 305.667z"/>
<path style="fill:#f39b5d; stroke:none;" d="M320.333 306.667L320.667 307.333L320.333 306.667M494.333 306.667L494.667 307.333L494.333 306.667M340 308L340 311L341 311L340 308z"/>
<path style="fill:#f39b5f; stroke:none;" d="M514 308L514 311L515 311L514 308M381.333 309.667L381.667 310.333L381.333 309.667M555.333 309.667L555.667 310.333L555.333 309.667M319.333 310.667L319.667 311.333L319.333 310.667z"/>
<path style="fill:#f7bb8d; stroke:none;" d="M448.333 310.667L448.667 311.333L448.333 310.667z"/>
<path style="fill:#f39b5d; stroke:none;" d="M493.333 310.667L493.667 311.333L493.333 310.667M739.333 310.667L739.667 311.333L739.333 310.667z"/>
<path style="fill:#f7bb8d; stroke:none;" d="M896.333 310.667L896.667 311.333L896.333 310.667z"/>
<path style="fill:#f5a56d; stroke:none;" d="M693.333 311.667L693.667 312.333L693.333 311.667z"/>
<path style="fill:#f39b5d; stroke:none;" d="M382.333 313.667L382.667 314.333L382.333 313.667z"/>
<path style="fill:#f39b5f; stroke:none;" d="M556.333 313.667L556.667 314.333L556.333 313.667z"/>
<path style="fill:#f5a56d; stroke:none;" d="M1058 313L1058 322L1059 322L1058 313z"/>
<path style="fill:#f39b5d; stroke:none;" d="M318.333 314.667L318.667 315.333L318.333 314.667M492.333 314.667L492.667 315.333L492.333 314.667z"/>
<path style="fill:#f7bb8d; stroke:none;" d="M697.667 315.333L698.333 315.667L697.667 315.333z"/>
<path style="fill:#f5af7d; stroke:none;" d="M705.667 315.333L706.333 315.667L705.667 315.333z"/>
<path style="fill:#f39b5d; stroke:none;" d="M383.333 317.667L383.667 318.333L383.333 317.667z"/>
<path style="fill:#f39d5f; stroke:none;" d="M557.333 317.667L557.667 318.333L557.333 317.667z"/>
<path style="fill:#f39b5f; stroke:none;" d="M317.333 318.667L317.667 319.333L317.333 318.667z"/>
<path style="fill:#f7af7d; stroke:none;" d="M338.333 318.667L338.667 319.333L338.333 318.667z"/>
<path style="fill:#f39b5f; stroke:none;" d="M491.333 318.667L491.667 319.333L491.333 318.667z"/>
<path style="fill:#f7af7d; stroke:none;" d="M512.333 318.667L512.667 319.333L512.333 318.667z"/>
<path style="fill:#f7bb8d; stroke:none;" d="M400.667 320.333L401.333 320.667L400.667 320.333M437.667 320.333L438.333 320.667L437.667 320.333z"/>
<path style="fill:#f5a56d; stroke:none;" d="M681.667 320.333L682.333 320.667L681.667 320.333z"/>
<path style="fill:#f7bb8d; stroke:none;" d="M786.667 320.333L787.333 320.667L786.667 320.333M848.667 320.333L849.333 320.667L848.667 320.333M885.667 320.333L886.333 320.667L885.667 320.333M406 321L406 322L410 322L406 321M428 321L428 322L433 322L428 321M686 321L686 322L689 322L686 321M712 321L712 322L717 322L712 321M753 321L753 322L758 322L753 321z"/>
<path style="fill:#f5a56d; stroke:none;" d="M775.667 321.333L776.333 321.667L775.667 321.333z"/>
<path style="fill:#f7bb8d; stroke:none;" d="M779 321L779 322L783 322L779 321M854 321L854 322L858 322L854 321M876 321L876 322L881 322L876 321z"/>
<path style="fill:#fbcd57; stroke:none;" d="M191.667 323.333L192.333 323.667L191.667 323.333z"/>
<path style="fill:#fdd563; stroke:none;" d="M207.667 327.333L208.333 327.667L207.667 327.333z"/>
<path style="fill:#fdd763; stroke:none;" d="M212.667 328.333L213.333 328.667L212.667 328.333z"/>
<path style="fill:#fff19f; stroke:none;" d="M282.667 329.333L283.333 329.667L282.667 329.333z"/>
<path style="fill:#ffdd63; stroke:none;" d="M224 330L224 331L227 331L224 330z"/>
<path style="fill:#ffe76d; stroke:none;" d="M276 330L276 331L279 331L276 330z"/>
<path style="fill:#ffe793; stroke:none;" d="M232 331L232 332L237 332L232 331z"/>
<path style="fill:#fdd94f; stroke:none;" d="M237 331L237 332L243 332L237 331z"/>
<path style="fill:#ffe157; stroke:none;" d="M265 331L265 332L272 332L265 331z"/>
</svg>
